<svg viewBox="156 110.98757763975163 499.2 487.51552795031057" xmlns="http://www.w3.org/2000/svg" xmlns:blush="http://design.blush" overflow="visible" xmlns:xlink="http://www.w3.org/1999/xlink" width="499.2px" height="487.51552795031057px"><g id="Master/Spot Illustration/Working" stroke="none" stroke-width="1" fill="none" fill-rule="evenodd" blush:viewBox="158.08000000000004 111.19451371571074 486.71999999999997 487.2568578553615" blush:i="0"><g id="Floor/Carpet" transform="translate(151.721600, 471.398000) scale(1 1)" blush:width="531" blush:height="154" blush:component="Floor/Carpet" blush:i="0.0" blush:value="Pink" blush:viewBox="39.825000000000045 30.53448275862067 454.0050000000001 95.58620689655174"><g id="Floor/Carpet/Pink" stroke="none" stroke-width="1" fill="none" fill-rule="evenodd" blush:viewBox="39.825000000000045 30.53448275862067 454.0050000000001 95.58620689655174" blush:i="0.0.0"><g id="Simple-Carpet" transform="translate(41.000000, 32.000000)" blush:i="0.0.0.0"><path d="M450.8618,46.9304 C450.8618,72.5734 350.0448,93.3614 225.6808,93.3614 C101.3178,93.3614 0.5008,72.5734 0.5008,46.9304 C0.5008,21.2864 101.3178,0.4994 225.6808,0.4994 C350.0448,0.4994 450.8618,21.2864 450.8618,46.9304" id="Carpet" fill="#E68371" blush:i="0.0.0.0.0"/><path d="M27.204,55.534 C27.48,55.534 27.704,55.31 27.704,55.034 C27.704,54.017 28.708,53.213 29.77,53.61 C30.001,53.694 30.257,53.604 30.38,53.392 C30.658,52.91 31.151,52.622 31.697,52.622 C32.387,52.622 32.992,53.092 33.168,53.764 C33.214,53.94 33.351,54.077 33.527,54.122 C33.701,54.168 33.889,54.113 34.014,53.982 C34.306,53.676 34.697,53.507 35.116,53.507 C35.958,53.507 36.644,54.192 36.644,55.034 C36.644,55.31 36.868,55.534 37.144,55.534 C37.42,55.534 37.644,55.31 37.644,55.034 C37.644,53.64 36.51,52.507 35.116,52.507 C34.665,52.507 34.234,52.624 33.854,52.845 C33.406,52.1 32.595,51.622 31.697,51.622 C30.936,51.622 30.217,51.974 29.741,52.561 C28.168,52.228 26.704,53.471 26.704,55.034 C26.704,55.31 26.928,55.534 27.204,55.534 M370.476,81.984 C330.035,88.998 278.613,92.861 225.681,92.861 C101.792,92.861 1,72.257 1,46.93 C1,46.654 0.777,46.43 0.5,46.43 C0.224,46.43 0,46.654 0,46.93 C0,59.596 23.565,71.429 66.353,80.252 C108.917,89.028 165.5,93.861 225.681,93.861 C278.668,93.861 330.151,89.993 370.647,82.969 C370.919,82.922 371.101,82.663 371.054,82.391 C371.007,82.118 370.748,81.928 370.476,81.984 M84.281,48.887 C84.557,48.887 84.781,48.663 84.781,48.387 C84.781,47.368 85.792,46.565 86.846,46.962 C87.074,47.049 87.334,46.957 87.457,46.745 C87.735,46.263 88.227,45.974 88.774,45.974 C89.464,45.974 90.069,46.444 90.245,47.116 C90.291,47.291 90.428,47.428 90.603,47.473 C90.78,47.517 90.965,47.465 91.09,47.335 C91.383,47.027 91.775,46.858 92.193,46.858 C93.035,46.858 93.721,47.544 93.721,48.387 C93.721,48.663 93.944,48.887 94.221,48.887 C94.497,48.887 94.721,48.663 94.721,48.387 C94.721,46.992 93.587,45.858 92.193,45.858 C91.742,45.858 91.311,45.975 90.932,46.197 C90.483,45.453 89.672,44.974 88.774,44.974 C88.013,44.974 87.294,45.326 86.819,45.914 C85.248,45.571 83.781,46.822 83.781,48.387 C83.781,48.663 84.004,48.887 84.281,48.887 M374.247,70.53 C373.797,70.53 373.366,70.647 372.986,70.869 C372.538,70.125 371.727,69.645 370.829,69.645 C370.068,69.645 369.35,69.998 368.873,70.586 C367.301,70.244 365.835,71.494 365.835,73.058 C365.835,73.335 366.059,73.558 366.335,73.558 C366.612,73.558 366.835,73.335 366.835,73.058 C366.835,72.04 367.846,71.236 368.901,71.634 C369.127,71.721 369.389,71.63 369.512,71.417 C369.79,70.933 370.282,70.645 370.829,70.645 C371.518,70.645 372.123,71.115 372.299,71.788 C372.346,71.963 372.482,72.099 372.658,72.145 C372.834,72.191 373.019,72.137 373.145,72.007 C373.438,71.699 373.829,71.53 374.247,71.53 C375.09,71.53 375.775,72.216 375.775,73.058 C375.775,73.335 375.999,73.558 376.275,73.558 C376.552,73.558 376.775,73.335 376.775,73.058 C376.775,71.664 375.641,70.53 374.247,70.53 M381.316,49.296 C380.866,49.296 380.434,49.413 380.055,49.634 C379.607,48.889 378.796,48.411 377.898,48.411 C377.137,48.411 376.418,48.763 375.942,49.35 C374.366,49.02 372.905,50.262 372.905,51.823 C372.905,52.099 373.128,52.323 373.405,52.323 C373.681,52.323 373.905,52.099 373.905,51.823 C373.905,50.806 374.908,50 375.971,50.399 C376.2,50.485 376.458,50.393 376.58,50.181 C376.859,49.699 377.351,49.411 377.898,49.411 C378.587,49.411 379.192,49.881 379.369,50.554 C379.415,50.729 379.552,50.866 379.728,50.911 C379.903,50.957 380.09,50.902 380.215,50.771 C380.507,50.465 380.898,50.296 381.316,50.296 C382.159,50.296 382.845,50.981 382.845,51.823 C382.845,52.099 383.068,52.323 383.345,52.323 C383.621,52.323 383.845,52.099 383.845,51.823 C383.845,50.43 382.71,49.296 381.316,49.296 M322.598,41.208 C322.874,41.208 323.098,40.984 323.098,40.708 C323.098,39.691 324.101,38.886 325.164,39.284 C325.394,39.368 325.651,39.277 325.774,39.066 C326.052,38.584 326.545,38.296 327.091,38.296 C327.781,38.296 328.386,38.765 328.562,39.438 C328.608,39.614 328.746,39.751 328.921,39.796 C329.096,39.842 329.283,39.787 329.408,39.656 C329.7,39.349 330.091,39.18 330.51,39.18 C331.352,39.18 332.038,39.866 332.038,40.708 C332.038,40.984 332.262,41.208 332.538,41.208 C332.814,41.208 333.038,40.984 333.038,40.708 C333.038,39.314 331.904,38.18 330.51,38.18 C330.059,38.18 329.628,38.298 329.248,38.518 C328.8,37.774 327.989,37.296 327.091,37.296 C326.33,37.296 325.611,37.648 325.135,38.235 C323.559,37.903 322.099,39.145 322.098,40.708 C322.098,40.984 322.322,41.208 322.598,41.208 M261.808,79.283 C262.084,79.283 262.308,79.059 262.308,78.783 C262.308,77.766 263.312,76.961 264.374,77.359 C264.603,77.443 264.861,77.353 264.983,77.141 C265.262,76.659 265.754,76.371 266.301,76.371 C266.99,76.371 267.595,76.841 267.772,77.513 C267.818,77.687 267.955,77.824 268.13,77.87 C268.306,77.915 268.492,77.862 268.617,77.731 C268.91,77.425 269.301,77.256 269.719,77.256 C270.562,77.256 271.247,77.941 271.247,78.783 C271.247,79.059 271.471,79.283 271.747,79.283 C272.024,79.283 272.247,79.059 272.247,78.783 C272.247,77.389 271.113,76.256 269.719,76.256 C269.268,76.256 268.837,76.373 268.458,76.594 C268.01,75.849 267.199,75.371 266.301,75.371 C265.54,75.371 264.821,75.723 264.345,76.31 C262.77,75.98 261.308,77.221 261.308,78.783 C261.308,79.059 261.531,79.283 261.808,79.283 M149.03,69.412 C148.582,68.668 147.771,68.189 146.873,68.189 C146.112,68.189 145.393,68.542 144.917,69.129 C143.341,68.798 141.88,70.039 141.88,71.601 C141.88,71.878 142.103,72.101 142.38,72.101 C142.656,72.101 142.88,71.878 142.88,71.601 C142.879,70.585 143.883,69.779 144.946,70.178 C145.176,70.262 145.433,70.171 145.556,69.96 C145.834,69.477 146.327,69.189 146.873,69.189 C147.562,69.189 148.167,69.659 148.344,70.332 C148.39,70.508 148.527,70.644 148.703,70.689 C148.878,70.735 149.065,70.68 149.19,70.55 C149.482,70.243 149.873,70.074 150.291,70.074 C151.134,70.074 151.82,70.76 151.82,71.601 C151.82,71.878 152.043,72.101 152.32,72.101 C152.596,72.101 152.82,71.878 152.82,71.601 C152.82,70.208 151.685,69.074 150.291,69.074 C149.841,69.074 149.41,69.191 149.03,69.412 M130.1,5.378 C130.116,5.378 130.132,5.377 130.149,5.376 C160.142,2.471 192.284,1 225.681,1 C225.957,1 226.181,0.776 226.181,0.5 C226.181,0.223 225.957,-1.13686838e-13 225.681,-1.13686838e-13 C192.252,-1.13686838e-13 160.078,1.473 130.052,4.38 C129.777,4.407 129.576,4.651 129.603,4.926 C129.628,5.184 129.846,5.378 130.1,5.378 M239.764,16.89 C240.04,16.89 240.264,16.667 240.264,16.39 C240.264,15.374 241.268,14.569 242.331,14.967 C242.561,15.051 242.818,14.961 242.94,14.749 C243.218,14.266 243.711,13.978 244.257,13.978 C244.947,13.978 245.552,14.448 245.728,15.12 C245.774,15.295 245.911,15.431 246.087,15.477 C246.262,15.521 246.448,15.469 246.574,15.339 C246.866,15.032 247.258,14.863 247.676,14.863 C248.518,14.863 249.204,15.549 249.204,16.39 C249.204,16.667 249.428,16.89 249.704,16.89 C249.98,16.89 250.204,16.667 250.204,16.39 C250.204,14.997 249.07,13.863 247.676,13.863 C247.225,13.863 246.794,13.98 246.415,14.201 C245.967,13.457 245.156,12.978 244.257,12.978 C243.496,12.978 242.777,13.331 242.301,13.918 C240.73,13.587 239.264,14.828 239.264,16.39 C239.264,16.667 239.488,16.89 239.764,16.89" id="Fill-15" fill="#000" blush:i="0.0.0.0.1"/></g></g></g><g id="Working Stuff" transform="translate(180.822000, 90.172000) scale(1 1)" blush:width="229" blush:height="251" blush:component="Working Stuff" blush:i="0.1" blush:value="Windows" blush:viewBox="7.783991228070164 23.845000000000027 210.92105263157896 204.56500000000005"><g id="Working Stuff/Windows" stroke="none" stroke-width="1" fill="none" fill-rule="evenodd" blush:viewBox="7.783991228070164 23.845000000000027 210.92105263157896 204.56500000000005" blush:i="0.1.0"><g id="Working-Windows" transform="translate(8.000000, 24.000000)" blush:i="0.1.0.0"><polygon id="Fill-1" fill="#F1EFEF" points="59 59 210 59 210 1 59 1" blush:i="0.1.0.0.0"/><path d="M210.224867,0.823099559 C210.47268,0.823099559 210.673803,1.02440352 210.673803,1.27243877 L210.673803,59.0296018 C210.673803,59.277637 210.47268,59.478941 210.224867,59.478941 L59.2377562,59.478941 C58.9899434,59.478941 58.78882,59.277637 58.78882,59.0296018 C58.78882,58.7815665 58.9899434,58.5802626 59.2377562,58.5802626 L209.775931,58.5802626 L209.775931,1.27243877 C209.775931,1.02440352 209.977054,0.823099559 210.224867,0.823099559 Z M120.630945,9.72639648 C120.878757,9.72639648 121.079881,9.92680176 121.079881,10.1757357 L121.079881,51.1410925 C121.079881,51.3891278 120.878757,51.5904317 120.630945,51.5904317 L69.0005915,51.5904317 C68.7518809,51.5904317 68.5516553,51.3891278 68.5516553,51.1410925 L68.5516553,10.1757357 C68.5516553,9.92680176 68.7518809,9.72639648 69.0005915,9.72639648 L120.630945,9.72639648 Z M120.182009,10.6250749 L69.4495277,10.6250749 L69.4495277,50.6917533 L120.182009,50.6917533 L120.182009,10.6250749 Z" id="Combined-Shape" fill="#000" blush:i="0.1.0.0.1"/><polygon id="Fill-8" fill="#F1EFEF" points="0.44893617 156.955084 156.641911 156.955084 156.641911 53.6007753 0.44893617 53.6007753" blush:i="0.1.0.0.2"/><polygon id="Fill-9" fill="#F1EFEF" points="108.915506 204 206.536677 204 206.536677 117.437498 108.915506 117.437498" blush:i="0.1.0.0.3"/><path d="M206.536677,169.115101 L206.536677,204 L108.915506,204 L108.915506,169.115101 L206.536677,169.115101 Z M156.641911,44.4818855 L156.641911,53.6007753 L0.44893617,53.6007753 L0.44893617,44.4818855 L156.641911,44.4818855 Z" id="Interface-color" fill="#94B1EB" blush:i="0.1.0.0.4"/><path d="M186.362383,180.824881 C186.610196,180.824881 186.811319,181.025286 186.811319,181.27422 L186.811319,194.012088 C186.811319,194.260123 186.610196,194.461427 186.362383,194.461427 L129.090698,194.461427 C128.842885,194.461427 128.641762,194.260123 128.641762,194.012088 L128.641762,181.27422 C128.641762,181.025286 128.842885,180.824881 129.090698,180.824881 L186.362383,180.824881 Z M185.912549,181.723559 L129.539634,181.723559 L129.539634,193.562749 L185.912549,193.562749 L185.912549,181.723559 Z M206.537305,116.988428 C206.785118,116.988428 206.986241,117.188833 206.986241,117.437767 C206.986241,117.685803 206.785118,117.887107 206.537305,117.887107 L109.365071,117.887107 L109.365071,191.550878 C109.365071,191.798913 109.163948,192.000217 108.916135,192.000217 C108.668322,192.000217 108.467199,191.798913 108.467199,191.550878 L108.467199,117.437767 C108.467199,117.188833 108.668322,116.988428 108.916135,116.988428 L206.537305,116.988428 Z M206.536946,168.665313 C206.784759,168.665313 206.985882,168.866617 206.985882,169.114652 C206.985882,169.362687 206.784759,169.563991 206.536946,169.563991 L128.150895,169.563991 C127.903082,169.563991 127.701959,169.362687 127.701959,169.114652 C127.701959,168.866617 127.903082,168.665313 128.150895,168.665313 L206.536946,168.665313 Z M199.305751,157.519184 C199.553564,157.519184 199.754688,157.720488 199.754688,157.968523 C199.754688,158.216559 199.553564,158.417863 199.305751,158.417863 L142.613194,158.417863 C142.365381,158.417863 142.164258,158.216559 142.164258,157.968523 C142.164258,157.720488 142.365381,157.519184 142.613194,157.519184 L199.305751,157.519184 Z M124.680618,133.200407 C130.669427,133.200407 135.54218,138.077535 135.54218,144.072619 C135.54218,150.066804 130.669427,154.943931 124.680618,154.943931 C118.690912,154.943931 113.818159,150.066804 113.818159,144.072619 C113.818159,138.077535 118.690912,133.200407 124.680618,133.200407 Z M124.680618,134.099085 C119.186537,134.099085 114.716031,138.573605 114.716031,144.072619 C114.716031,149.571632 119.186537,154.045253 124.680618,154.045253 C130.174699,154.045253 134.644308,149.571632 134.644308,144.072619 C134.644308,138.573605 130.174699,134.099085 124.680618,134.099085 Z M199.305751,145.359796 C199.553564,145.359796 199.754688,145.5611 199.754688,145.809135 C199.754688,146.05717 199.553564,146.258474 199.305751,146.258474 L142.613194,146.258474 C142.365381,146.258474 142.164258,146.05717 142.164258,145.809135 C142.164258,145.5611 142.365381,145.359796 142.613194,145.359796 L199.305751,145.359796 Z M199.305751,133.200407 C199.553564,133.200407 199.754688,133.401711 199.754688,133.649746 C199.754688,133.897781 199.553564,134.099085 199.305751,134.099085 L142.613194,134.099085 C142.365381,134.099085 142.164258,133.897781 142.164258,133.649746 C142.164258,133.401711 142.365381,133.200407 142.613194,133.200407 L199.305751,133.200407 Z" id="Combined-Shape" fill="#000" blush:i="0.1.0.0.5"/><path d="M72.9045404,65.7455154 C73.1532511,65.7455154 73.3534766,65.9468194 73.3534766,66.1948546 L73.3534766,145.808775 C73.3534766,146.057709 73.1532511,146.258115 72.9045404,146.258115 L9.84965957,146.258115 C9.60094894,146.258115 9.4007234,146.057709 9.4007234,145.808775 L9.4007234,66.1948546 C9.4007234,65.9468194 9.60094894,65.7455154 9.84965957,65.7455154 L72.9045404,65.7455154 Z M72.4565021,66.6441938 L10.2985957,66.6441938 L10.2985957,145.359436 L72.4565021,145.359436 L72.4565021,66.6441938 Z M147.530751,90.9326855 C147.778564,90.9326855 147.979687,91.1339894 147.979687,91.3820247 C147.979687,91.6300599 147.778564,91.8313639 147.530751,91.8313639 L81.5829255,91.8313639 C81.3342149,91.8313639 81.1339894,91.6300599 81.1339894,91.3820247 C81.1339894,91.1339894 81.3342149,90.9326855 81.5829255,90.9326855 L147.530751,90.9326855 Z M147.530751,82.537052 C147.778564,82.537052 147.979687,82.7383559 147.979687,82.9863912 C147.979687,83.2344264 147.778564,83.4357304 147.530751,83.4357304 L81.5829255,83.4357304 C81.3342149,83.4357304 81.1339894,83.2344264 81.1339894,82.9863912 C81.1339894,82.7383559 81.3342149,82.537052 81.5829255,82.537052 L147.530751,82.537052 Z M147.530751,74.1413286 C147.778564,74.1413286 147.979687,74.3426326 147.979687,74.5906678 C147.979687,74.8387031 147.778564,75.040007 147.530751,75.040007 L81.5829255,75.040007 C81.3342149,75.040007 81.1339894,74.8387031 81.1339894,74.5906678 C81.1339894,74.3426326 81.3342149,74.1413286 81.5829255,74.1413286 L147.530751,74.1413286 Z M147.530751,65.7456053 C147.778564,65.7456053 147.979687,65.9469093 147.979687,66.1949445 C147.979687,66.4429797 147.778564,66.6442837 147.530751,66.6442837 L81.5829255,66.6442837 C81.3342149,66.6442837 81.1339894,66.4429797 81.1339894,66.1949445 C81.1339894,65.9469093 81.3342149,65.7456053 81.5829255,65.7456053 L147.530751,65.7456053 Z M156.641911,44.0329057 C156.889723,44.0329057 157.090847,44.233311 157.090847,44.4822449 L157.090847,53.6011348 C157.090847,53.84917 156.889723,54.050474 156.641911,54.050474 L0.44893617,54.050474 C0.201123404,54.050474 8.52651283e-14,53.84917 8.52651283e-14,53.6011348 C8.52651283e-14,53.3530996 0.201123404,53.1517956 0.44893617,53.1517956 L156.192974,53.1517956 L156.192974,44.4822449 C156.192974,44.233311 156.394098,44.0329057 156.641911,44.0329057 Z M20.8325238,46.3485304 C22.2754047,46.3485304 23.4507196,47.5240018 23.4507196,48.9690767 C23.4507196,50.4141515 22.2754047,51.5905216 20.8325238,51.5905216 C19.389643,51.5905216 18.2143281,50.4141515 18.2143281,48.9690767 C18.2143281,47.5240018 19.389643,46.3485304 20.8325238,46.3485304 Z M30.0883306,46.3485304 C31.5312115,46.3485304 32.7065264,47.5240018 32.7065264,48.9690767 C32.7065264,50.4141515 31.5312115,51.5905216 30.0883306,51.5905216 C28.6454498,51.5905216 27.4701349,50.4141515 27.4701349,48.9690767 C27.4701349,47.5240018 28.6454498,46.3485304 30.0883306,46.3485304 Z M39.3441374,46.3485304 C40.7870183,46.3485304 41.9623332,47.5240018 41.9623332,48.9690767 C41.9623332,50.4141515 40.7870183,51.5905216 39.3441374,51.5905216 C37.9012566,51.5905216 36.7259417,50.4141515 36.7259417,48.9690767 C36.7259417,47.5240018 37.9012566,46.3485304 39.3441374,46.3485304 Z M20.8325238,47.2472088 C19.8834728,47.2472088 19.1122004,48.0191736 19.1122004,48.9690767 C19.1122004,49.9189797 19.8834728,50.6918432 20.8325238,50.6918432 C21.7815749,50.6918432 22.5528472,49.9189797 22.5528472,48.9690767 C22.5528472,48.0191736 21.7815749,47.2472088 20.8325238,47.2472088 Z M30.0883306,47.2472088 C29.1392796,47.2472088 28.3680072,48.0191736 28.3680072,48.9690767 C28.3680072,49.9189797 29.1392796,50.6918432 30.0883306,50.6918432 C31.0373817,50.6918432 31.808654,49.9189797 31.808654,48.9690767 C31.808654,48.0191736 31.0373817,47.2472088 30.0883306,47.2472088 Z M39.3441374,47.2472088 C38.3950864,47.2472088 37.623814,48.0191736 37.623814,48.9690767 C37.623814,49.9189797 38.3950864,50.6918432 39.3441374,50.6918432 C40.2931885,50.6918432 41.0644609,49.9189797 41.0644609,48.9690767 C41.0644609,48.0191736 40.2931885,47.2472088 39.3441374,47.2472088 Z" id="Combined-Shape" fill="#000" blush:i="0.1.0.0.6"/><path d="M176.367268,83.5993797 L190.255557,87.7144282 C191.157021,87.9813357 191.446136,89.1172652 190.780813,89.7831859 L187.051949,93.5136993 L193.054764,99.5210855 C193.756003,100.222953 193.756003,101.36068 193.054764,102.062548 C192.703696,102.413931 192.244883,102.589174 191.785173,102.589174 C191.325462,102.589174 190.866649,102.413931 190.515581,102.062548 L184.512949,96.0546993 L181.002983,99.5688952 C180.338557,100.234816 179.203647,99.9463401 178.936979,99.044067 L174.825621,85.1424106 C174.546383,84.1987982 175.423604,83.3198907 176.367268,83.5993797 Z" id="Combined-Shape" fill="#000" blush:i="0.1.0.0.7"/></g></g></g><g id="Desk" transform="translate(161.000000, 285.770000)" blush:i="0.2"><polygon fill="#83BB9E" points="268.0898 54.7969 1.3518 54.7969 1.3518 121.4819 84.7078 121.4819 84.7078 73.6429 268.0898 73.6429" blush:i="0.2.0"/><path d="M268.0898,54.2969 C267.8138,54.2969 267.5898,54.5209 267.5898,54.7969 L267.5898,73.3839 L1.8518,73.3839 L1.8518,54.7969 C1.8518,54.5209 1.6288,54.2969 1.3518,54.2969 C1.0758,54.2969 0.8518,54.5209 0.8518,54.7969 L0.8518,243.0109 C0.8518,243.2869 1.0758,243.5109 1.3518,243.5109 C1.6288,243.5109 1.8518,243.2869 1.8518,243.0109 L1.8518,74.3839 L267.5898,74.3839 L267.5898,243.0109 C267.5898,243.2869 267.8138,243.5109 268.0898,243.5109 C268.3658,243.5109 268.5898,243.2869 268.5898,243.0109 L268.5898,54.7969 C268.5898,54.5209 268.3658,54.2969 268.0898,54.2969 L268.0898,54.2969 Z M26.2548,84.7389 L60.2878,84.7389 L60.2878,83.0819 L26.2548,83.0819 L26.2548,84.7389 Z M60.7878,82.0819 L25.7548,82.0819 C25.4788,82.0819 25.2548,82.3059 25.2548,82.5819 L25.2548,85.2389 C25.2548,85.5159 25.4788,85.7389 25.7548,85.7389 L60.7878,85.7389 C61.0648,85.7389 61.2878,85.5159 61.2878,85.2389 L61.2878,82.5819 C61.2878,82.3059 61.0648,82.0819 60.7878,82.0819 L60.7878,82.0819 Z" id="Fill-44" fill="#000" blush:i="0.2.1"/><polygon id="Fill-45" fill="#E2A2B5" points="6.4996 54.839 19.9046 54.839 19.9046 0.23 6.4996 0.23" blush:i="0.2.2"/><polygon id="Fill-46" fill="#94B1EB" points="19.9046 54.839 33.3096 54.839 33.3096 12.338 19.9046 12.338" blush:i="0.2.3"/><path d="M33.31,11.8377 C33.033,11.8377 32.81,12.0617 32.81,12.3377 L32.81,54.3387 L20.405,54.3387 L20.405,20.7897 C20.405,20.5137 20.181,20.2897 19.905,20.2897 C19.628,20.2897 19.405,20.5137 19.405,20.7897 L19.405,54.3387 L6.5,54.3387 C6.224,54.3387 6,54.5627 6,54.8387 C6,55.1157 6.224,55.3387 6.5,55.3387 L33.31,55.3387 C33.586,55.3387 33.81,55.1157 33.81,54.8387 L33.81,12.3377 C33.81,12.0617 33.586,11.8377 33.31,11.8377" id="Path" fill="#000" blush:i="0.2.4"/></g><g id="Chair" transform="translate(443.271900, 271.524000)" blush:i="0.3"><path d="M131.249,71.057 C129.285,74.494 126.985,76.475 124.529,76.475 C117.344,76.475 111.499,59.546 111.499,38.737 C111.499,17.929 117.344,1 124.529,1 C131.713,1 137.559,17.929 137.559,38.737 C137.559,52.194 135.113,64.02 131.442,70.703 C131.331,70.788 131.259,70.913 131.249,71.057 Z M124.529,0 C116.662,0 110.499,17.015 110.499,38.737 C110.499,60.46 116.662,77.475 124.529,77.475 C127.021,77.475 129.341,75.764 131.349,72.739 C132.51,91.369 129.258,117.324 108.229,138.353 C108.034,138.549 108.034,138.865 108.229,139.06 C108.327,139.158 108.455,139.207 108.583,139.207 C108.711,139.207 108.838,139.158 108.936,139.06 C130.769,117.227 133.677,90.177 132.249,71.257 C136.075,64.408 138.559,52.524 138.559,38.737 C138.559,17.015 132.396,0 124.529,0 Z M109.083,136.821 C109.083,136.545 108.859,136.321 108.583,136.321 L0.5,136.321 C0.223,136.321 -1.27897692e-12,136.545 -1.27897692e-12,136.821 L-1.27897692e-12,150.593 C-1.27897692e-12,150.869 0.223,151.093 0.5,151.093 C0.776,151.093 1,150.869 1,150.593 L1,137.321 L108.583,137.321 C108.859,137.321 109.083,137.098 109.083,136.821 M86.426,241.555184 L57.378,222.819344 L57.378,140.49861 C57.378,140.232684 57.154,140.018598 56.878,140.018598 C56.601,140.018598 56.378,140.232684 56.378,140.49861 L56.378,222.819344 L27.159,241.664626 C26.239,241.304617 25.235,241.103012 24.18,241.103012 C19.821,241.103012 16.288,244.495739 16.288,248.679526 C16.288,252.865233 19.821,256.257 24.18,256.257 C28.539,256.257 32.073,252.865233 32.073,248.679526 C32.073,245.901215 30.509,243.478113 28.186,242.159999 L56.378,223.976174 L56.378,241.127013 C52.253,241.376619 48.985,244.657983 48.985,248.679526 C48.985,252.865233 52.519,256.257 56.878,256.257 C61.237,256.257 64.77,252.865233 64.77,248.679526 C64.77,244.657023 61.503,241.375659 57.378,241.127013 L57.378,223.976174 L85.341,242.012155 C82.876,243.294748 81.2,245.798492 81.2,248.679526 C81.2,252.865233 84.734,256.257 89.092,256.257 C93.452,256.257 96.985,252.865233 96.985,248.679526 C96.985,244.495739 93.452,241.103012 89.092,241.103012 C88.156,241.103012 87.26,241.267176 86.426,241.555184 Z" id="Fill-161" fill="#000" blush:i="0.3.0"/><polygon fill="#94B1EB" points="0.4991 151.593 108.5821 151.593 108.5821 137.822 0.4991 137.822" blush:i="0.3.1"/></g><g transform="translate(481.908400, 153.500000) scale(-1, 1) translate(-481.908400, -153.500000) translate(216.408400, -222.000000) scale(1 1)" blush:has-customizable-colors="true" blush:width="531" blush:height="751" id="Master/Character/Sitting on Chair" blush:component="Master/Character/Sitting on Chair" blush:i="0.4" blush:value="Sitting on Chair" blush:viewBox="171.75 379.255 210.00000000000014 371.7449999999999"><defs blush:i="0.4.0"><polygon id="mastercharactersitting-on-chair-path-1" points="0 0.0003 46.889 0.0003 46.889 52.9562 0 52.9562" blush:i="0.4.0.0"/></defs><g id="Master/Character/Sitting on Chair" stroke="none" stroke-width="1" fill="none" fill-rule="evenodd" blush:has-customizable-colors="true" blush:viewBox="171.75 379.255 210.00000000000014 371.7449999999999" blush:i="0.4.1"><g id="Lower Body/Sitting on Chair" transform="translate(71.000000, 393.000000) scale(1 1)" blush:width="420" blush:height="359" blush:component="Lower Body/Sitting on Chair" blush:i="0.4.1.0" blush:value="Long Pants Blue" blush:viewBox="134.39999999999998 170.04156908665107 174.29999999999993 189.16861826697894"><g id="Lower Body/Sitting on Chair/Long Pants Blue" stroke="none" stroke-width="1" fill="none" fill-rule="evenodd" blush:viewBox="134.39999999999998 170.04156908665107 174.29999999999993 189.16861826697894" blush:i="0.4.1.0.0"><g id="Group" transform="translate(136.000237, 172.000500)" blush:i="0.4.1.0.0.0"><path d="M171.995463,183.4617 C165.998463,179.7867 138.348463,169.5077 137.720463,161.1367 C136.744463,148.1447 136.777463,127.3727 136.950463,112.4327 C128.895463,113.2817 119.621463,114.1667 109.759463,114.9307 L120.922463,161.3367 C121.462463,165.5237 122.189463,165.9247 117.637463,175.4227 C116.646463,177.4877 116.446463,179.1507 116.715463,180.4927 C106.534463,175.7087 88.8334635,167.8157 88.3324635,161.1367 C87.3564635,148.1447 87.3904635,127.3727 87.5624635,112.4327 C79.5074635,113.2817 70.2344635,114.1667 60.3714635,114.9307 L71.5344635,161.3367 C72.0744635,165.5237 72.8014635,165.9247 68.2494635,175.4227 C63.9354635,184.4197 74.4884635,185.8437 74.4884635,185.8437 L121.891463,185.962706 C122.237463,185.9637 122.549463,185.8297 122.788463,185.6167 C123.441463,185.7837 123.875463,185.8437 123.875463,185.8437 L171.278463,185.962706 C172.026463,185.9647 172.632463,185.3587 172.632463,184.6117 C172.632463,184.1417 172.396463,183.7067 171.995463,183.4617" id="Skin" fill="#f4d4b8" blush:color="Skin-500" blush:i="0.4.1.0.0.0.0"/><path d="M171.995463,183.4617 C170.256463,182.3967 153.927463,173.7117 149.204463,172.0627 C145.635463,179.7677 122.364463,176.1377 120.171463,169.7407 C120.142463,169.8117 117.416463,175.3697 117.388463,175.4407 C116.625463,177.3807 116.470463,178.9597 116.692463,180.2497 C111.001463,177.2507 102.913463,173.1447 99.8174635,172.0627 C96.2474635,179.7677 72.9764635,176.1377 70.7834635,169.7407 C70.7554635,169.8117 68.0284635,175.3697 68.0004635,175.4407 C64.3504635,184.7277 74.4884635,185.8437 74.4884635,185.8437 L121.891463,185.962706 C122.227463,185.9637 122.532463,185.8367 122.769463,185.6337 C123.432463,185.7937 123.875463,185.8437 123.875463,185.8437 L171.279463,185.962706 C172.026463,185.9647 172.632463,185.3587 172.632463,184.6117 C172.632463,184.1417 172.396463,183.7067 171.995463,183.4617" id="Shoes" fill="#83BB9E" blush:i="0.4.1.0.0.0.1"/><path d="M125.389783,162.106314 L141.36312,160.57927 C143.10512,160.31527 144.29312,158.67527 143.99912,156.93627 L135.628463,41.5715 C134.075463,30.1775 124.243463,21.6165 112.606463,21.8305 L96.2224635,22.1345 L94.3504635,0.4995 L6.65046348,0.4995 C6.65046348,0.4995 -3.29353652,37.0775 1.13746348,49.8745 C5.12746348,61.4015 13.5404635,69.4065 51.7264635,66.2475 L66.4175326,158.956314 C66.4145326,160.781314 67.9575326,162.227314 69.7795326,162.106314 L91.8164635,160.57927 C93.6434635,160.45727 94.9814635,158.81027 94.7284635,156.99727 L91.8164635,64.0445 L96.9244635,64.2575 L116.316084,160.52827 C116.518084,162.30427 118.153084,163.55727 119.920084,163.28927" id="Pants" fill="#53627B" blush:i="0.4.1.0.0.0.2"/><path d="M94.7304635,53.759 L100.071214,82.8 C100.104214,83.052 100.814214,85.7823348 101.062214,85.7823348 C101.083214,85.7823348 100.609214,83.235 100.631214,83.232 C100.905214,83.196 101.098214,82.945 101.062214,82.671 L95.7224635,53.63 C95.6864635,53.356 95.4324635,53.157 95.1614635,53.198 C94.8874635,53.234 94.6944635,53.485 94.7304635,53.759 Z M122.869463,183.035 C121.104463,181.955 104.807463,173.275 99.9824635,171.591 C99.9594635,171.583 99.9364635,171.586 99.9134635,171.581 C99.8784635,171.574 99.8444635,171.565 99.8094635,171.566 C99.7764635,171.566 99.7464635,171.575 99.7144635,171.582 C99.6834635,171.588 99.6544635,171.593 99.6244635,171.605 C99.5944635,171.618 99.5684635,171.637 99.5404635,171.656 C99.5154635,171.674 99.4894635,171.689 99.4674635,171.712 C99.4434635,171.735 99.4264635,171.764 99.4074635,171.793 C99.3934635,171.814 99.3744635,171.829 99.3634635,171.852 C98.0444635,174.701 93.4214635,176.198 86.9984635,175.872 C79.3724635,175.477 72.3104635,172.654 71.2564635,169.579 C71.1894635,169.386 71.0124635,169.255 70.8074635,169.244 C70.5944635,169.248 70.4134635,169.35 70.3274635,169.537 C70.2824635,169.634 69.6384635,170.95 68.9814635,172.291 C67.6224635,175.07 67.5524635,175.216 67.5354635,175.257 C67.4354635,175.509 67.5564635,175.792 67.8054635,175.898 C68.0544635,176.006 68.3434635,175.891 68.4574635,175.644 C68.5044635,175.542 69.1984635,174.124 69.8804635,172.731 C70.3014635,171.87 70.5924635,171.276 70.7924635,170.866 C73.0214635,174.236 80.4204635,176.533 86.9464635,176.871 C87.5384635,176.901 88.1164635,176.917 88.6804635,176.917 C94.3454635,176.917 98.4874635,175.38 100.051463,172.68 C105.088463,174.592 120.524463,182.772 122.347463,183.888 C122.596463,184.041 122.744463,184.311 122.744463,184.612 C122.744463,184.888 122.968463,185.112 123.244463,185.112 C123.521463,185.112 123.744463,184.888 123.744463,184.612 C123.744463,183.96 123.417463,183.371 122.869463,183.035 L122.869463,183.035 Z M90.8114635,64.078 C90.8114635,64.08 90.8124635,64.082 90.8124635,64.083 L93.2942131,104.490448 C93.3162131,104.751448 93.5782131,105.835665 93.8352131,105.835665 C93.8492131,105.835665 94.2772131,105.835665 94.2912131,105.835665 C94.5662131,105.81222 94.3142131,104.680448 94.2912131,104.404448 L91.8064635,63.981 C91.8064635,63.979 91.8054635,63.978 91.8054635,63.976 C91.8044635,63.974 91.8054635,63.972 91.8054635,63.969 L88.9314635,37.684 C87.8654635,27.943 79.6754635,20.405 69.8814635,20.148 L37.2644635,19.295 C37.0354635,19.302 36.7584635,19.506 36.7501132,19.781 C36.7444635,20.057 36.9614635,20.287 37.2374635,20.295 L69.8544635,21.148 C79.1514635,21.391 86.9254635,28.547 87.9364635,37.793 L90.8114635,64.078 Z M95.6644635,21.479 L85.7364635,21.637 C85.4594635,21.641 85.2394635,21.869 85.2444635,22.145 C85.2484635,22.419 85.4714635,22.637 85.7444635,22.637 L85.7514635,22.637 L95.8724635,22.476 C95.9704635,22.577 96.1014635,22.642 96.2324635,22.635 L112.615463,22.332 C112.756463,22.329 112.894463,22.328 113.034463,22.328 C124.656463,22.328 134.396463,31.304 135.298463,42.938 C135.319463,43.2 135.537463,43.399 135.796463,43.399 C135.809463,43.399 135.822463,43.399 135.835463,43.398 C136.111463,43.377 136.317463,43.136 136.295463,42.861 C135.341463,30.559 124.926463,21.098 112.597463,21.332 L101.302463,21.541 C101.204463,21.447 101.077463,21.39 100.957463,21.395 L96.6664635,21.464 L94.8494635,0.457 C94.8264635,0.198 94.6104635,4.26325641e-14 94.3504635,4.26325641e-14 L6.64946348,4.26325641e-14 C6.37346348,4.26325641e-14 6.14946348,0.223 6.14946348,0.5 C6.14946348,0.776 6.37346348,1 6.64946348,1 L93.8924635,1 L95.6644635,21.479 Z M149.415463,171.608 C149.166463,171.492 148.867463,171.601 148.751463,171.852 C147.431463,174.701 142.808463,176.198 136.386463,175.872 C128.760463,175.477 121.698463,172.654 120.643463,169.579 C120.577463,169.386 120.399463,169.255 120.195463,169.244 C119.981463,169.248 119.801463,169.35 119.715463,169.537 C119.670463,169.634 119.025463,170.95 118.369463,172.291 C117.010463,175.07 116.939463,175.216 116.923463,175.257 C116.823463,175.509 116.943463,175.792 117.192463,175.898 C117.441463,176.006 117.730463,175.891 117.845463,175.644 C117.891463,175.542 118.586463,174.124 119.267463,172.731 C119.688463,171.87 119.979463,171.276 120.180463,170.866 C122.409463,174.236 129.807463,176.533 136.334463,176.871 C136.926463,176.901 137.504463,176.917 138.067463,176.917 C144.015463,176.917 148.290463,175.226 149.659463,172.272 C149.774463,172.022 149.666463,171.724 149.415463,171.608 L149.415463,171.608 Z M128.452463,164.623 C128.515463,164.353 128.348463,164.085 128.079463,164.021 C127.803463,163.961 127.541463,164.126 127.477463,164.394 L127.097463,166.023 C126.627463,168.039 127.219463,170.114 128.681463,171.576 C128.779463,171.674 128.907463,171.722 129.035463,171.722 C129.163463,171.722 129.291463,171.674 129.389463,171.576 C129.584463,171.381 129.584463,171.064 129.389463,170.869 C128.172463,169.653 127.680463,167.927 128.071463,166.251 L128.452463,164.623 Z M79.0644635,164.623 C79.1274635,164.353 78.9604635,164.085 78.6914635,164.021 C78.4154635,163.961 78.1534635,164.126 78.0904635,164.394 L77.7094635,166.023 C77.2394635,168.039 77.8314635,170.114 79.2944635,171.576 C79.3914635,171.674 79.5194635,171.722 79.6474635,171.722 C79.7754635,171.722 79.9034635,171.674 80.0014635,171.576 C80.1964635,171.381 80.1964635,171.064 80.0014635,170.869 C78.7844635,169.653 78.2924635,167.927 78.6834635,166.251 L79.0644635,164.623 Z" id="Fill-9" fill="#000" blush:i="0.4.1.0.0.0.3"/></g></g></g><g id="Upper Body" transform="translate(8.000000, 265.000000) scale(1 1)" blush:width="529" blush:height="474" blush:component="Upper Body" blush:i="0.4.1.1" blush:value="Working" blush:viewBox="166.635 170.87276785714278 190.43999999999988 134.8995535714287"><g id="Upper Body/Working" stroke="none" stroke-width="1" fill="none" fill-rule="evenodd" blush:viewBox="166.635 170.87276785714278 190.43999999999988 134.8995535714287" blush:i="0.4.1.1.0"><path d="M309.7378,252.8214 C308.6218,256.0324 300.0308,257.0394 293.4438,257.3364 C293.9308,241.0084 294.5558,225.9074 294.5558,225.9074 C294.5558,225.9074 311.5788,247.5314 309.7378,252.8214 M198.2368,241.5414 C203.6998,234.0044 212.6638,228.2084 212.6638,228.2084 C212.6638,228.2084 211.9008,235.3924 210.7778,245.0494 C203.5618,245.9244 194.8878,246.1614 198.2368,241.5414 M262.3508,184.2714 L251.3088,207.5054 L237.2768,184.7314 C237.2768,184.7314 229.8218,186.0084 219.6578,190.3464 L216.2998,191.8504 C203.0168,198.0834 186.3378,209.3414 175.3448,229.0614 C154.4878,266.4794 182.2178,277.9274 206.5728,277.8094 C206.0588,281.2844 205.5528,284.4534 205.0718,287.0964 C201.8518,304.8094 205.0718,305.5004 205.0718,305.5004 L292.9458,305.5004 C292.9458,305.5004 299.9722,306.397312 298.8222,297.195312 C298.5632,295.122312 298.7792,293.1504 298.8222,287.0964 C338.789062,291.005859 334.2758,259.1564 334.2758,259.1564 C325.5428,184.2714 262.3508,184.2714 262.3508,184.2714 Z" id="Sweater" fill="#94B1EB" blush:i="0.4.1.1.0.0"/><polygon id="Laptop" fill="#F1EFEF" points="295.9927 215.0607 282.0797 252.2737 282.0207 252.2587 243.4967 252.2587 243.4967 253.2587 279.3647 259.5367 334.0617 259.5367 354.1477 215.0607" blush:i="0.4.1.1.0.1"/><path d="M299.4468,259.5363 L278.9688,259.5363 L253.9818,255.1633 C262.2028,265.1363 276.6118,262.4843 276.6118,262.4843 C284.3618,268.7093 291.7418,274.2273 298.2168,278.0773 C298.6418,267.4183 299.5398,262.8073 299.4468,259.5363 L299.4468,259.5363 Z M275.9208,251.8843 C276.7008,251.9283 277.0218,250.9053 276.3588,250.4923 C274.3818,249.2623 271.2918,247.4883 267.6068,245.8423 C269.9868,245.8443 271.4088,245.6063 270.2888,244.8863 C265.6968,241.9293 251.0988,241.5413 251.0988,241.5413 C251.0658,241.5513 251.0408,241.5603 251.0088,241.5703 C250.0518,241.5433 249.0968,241.5463 248.1508,241.6213 C233.7388,242.7753 218.7178,247.9923 218.7178,247.9923 L217.7858,267.6603 C217.7858,267.6603 243.5718,253.5813 249.8138,252.0543 C254.6988,250.8573 269.6488,251.5333 275.9208,251.8843 L275.9208,251.8843 Z M262.3508,184.2713 L257.350561,182.2013 L257.350561,172.9993 L243.549561,172.9993 L243.549561,182.6613 L237.2768,184.7313 L251.3088,207.5053 L262.3508,184.2713 Z" id="Skin" fill="#f4d4b8" blush:color="Skin-500" blush:i="0.4.1.1.0.2"/><path d="M294.6851,287.8634 C294.5541,287.8634 294.4221,287.8494 294.2891,287.8234 C293.7061,287.7094 293.2561,287.3954 292.9531,286.8934 C291.8441,285.0614 293.0251,281.0724 293.9731,277.8664 C294.1291,277.3404 294.2751,276.8484 294.3941,276.4144 C294.4671,276.1474 294.7451,275.9934 295.0091,276.0644 C295.2761,276.1384 295.4321,276.4144 295.3591,276.6794 C295.2371,277.1204 295.0901,277.6174 294.9321,278.1504 C294.1341,280.8464 292.9281,284.9224 293.8081,286.3764 C293.9641,286.6344 294.1791,286.7824 294.4821,286.8424 C294.7971,286.9014 295.0791,286.8234 295.3711,286.5864 C297.6491,284.7334 299.0991,274.7884 299.2501,259.9824 C299.2531,259.7084 299.4771,259.4874 299.7501,259.4874 L299.7551,259.4874 C300.0321,259.4904 300.2531,259.7164 300.25013,259.9924 C300.1591,268.9984 299.4841,284.5294 296.0011,287.3624 C295.5911,287.6954 295.1501,287.8634 294.6851,287.8634" id="Fill-9" fill="#000" blush:i="0.4.1.1.0.3"/><path d="M299.2779,287.8341 C298.1339,287.8341 296.9589,287.8181 295.7519,287.7871 C295.4749,287.7791 295.2569,287.5501 295.263736,287.2741 C295.2719,286.9991 295.5159,286.7791 295.7769,286.7871 C306.6269,287.0711 314.8199,286.0821 320.1729,283.8541 C320.4279,283.7521 320.7199,283.8681 320.8269,284.1231 C320.9319,284.3781 320.8119,284.6711 320.5569,284.7771 C315.6749,286.8091 308.5279,287.8341 299.2779,287.8341" id="Fill-11" fill="#000" blush:i="0.4.1.1.0.4"/><path d="M280.9185,258.6349 C280.8915,258.6349 280.8625,258.6329 280.8355,258.6279 L246.6335,252.8529 C246.3605,252.8069 246.1775,252.5489 246.2235,252.2769 C246.2695,252.0039 246.5375,251.8229 246.7995,251.8659 L280.5895,257.5729 L296.0345,214.5349 C296.1065,214.3369 296.2945,214.2039 296.5055,214.2039 L354.6605,214.2039 C354.8305,214.2039 354.9885,214.2899 355.0805,214.4329 C355.1725,214.5749 355.1865,214.7549 355.1165,214.9099 L339.8015,248.8239 C339.6875,249.0759 339.3915,249.1869 339.1395,249.0739 C338.8885,248.9599 338.7755,248.6639 338.8895,248.4119 L353.8865,215.2039 L296.8565,215.2039 L281.3895,258.3039 C281.3165,258.5049 281.1265,258.6349 280.9185,258.6349" id="Fill-13" fill="#000" blush:i="0.4.1.1.0.5"/><path d="M237.2368,257.8361 C237.0728,257.8361 236.9108,257.7551 236.8158,257.6061 C236.6668,257.3731 236.7348,257.0641 236.9668,256.9151 C241.6468,253.9221 249.3488,251.6681 249.6748,251.5731 C254.6538,250.3561 269.7068,251.0361 275.9488,251.3851 C276.1248,251.3931 276.1828,251.2791 276.2038,251.2101 C276.2218,251.1531 276.2468,251.0121 276.0938,250.9171 C271.3698,247.9791 259.1948,241.2471 248.1908,242.1201 C248.0638,242.1331 234.4678,243.5121 225.6658,246.3191 C225.3988,246.4011 225.1208,246.2571 225.0368,245.9951 C224.9528,245.7321 225.0978,245.4501 225.3608,245.3661 C234.2648,242.5261 247.9648,241.1391 248.1008,241.1251 C259.4268,240.2181 271.8138,247.0771 276.6228,250.0671 C277.1188,250.3761 277.3328,250.9561 277.1568,251.5121 C276.9818,252.0661 276.4608,252.4251 275.8918,252.3831 C269.6938,252.0371 254.7578,251.3581 249.9328,252.5391 C249.8748,252.5571 242.0628,254.8431 237.5068,257.7571 C237.4228,257.8111 237.3298,257.8361 237.2368,257.8361" id="Fill-15" fill="#000" blush:i="0.4.1.1.0.6"/><path d="M273.6284,252.0822 C273.5004,252.0822 273.3724,252.0332 273.2744,251.9362 C267.0384,245.7022 256.7364,245.6232 256.6334,245.6232 C256.3574,245.6232 256.1334,245.3992 256.1334,245.1232 C256.1334,244.8472 256.3574,244.6232 256.6334,244.6232 C257.0714,244.6232 267.4474,244.6972 273.9824,251.2282 C274.1774,251.4242 274.1774,251.7402 273.9824,251.9362 C273.8844,252.0332 273.7564,252.0822 273.6284,252.0822" id="Fill-17" fill="#000" blush:i="0.4.1.1.0.7"/><path d="M269.5611,252.0822 C269.3741,252.0822 269.1951,251.9772 269.1091,251.7962 C267.6761,248.7742 259.3251,248.3882 256.2291,248.5042 C255.9631,248.5062 255.7221,248.2972 255.7111,248.0212 C255.7021,247.7452 255.9171,247.5142 256.1941,247.5042 C256.6761,247.4912 268.0061,247.1362 270.0131,251.3682 C270.1311,251.6172 270.0251,251.9152 269.7751,252.0342 C269.7071,252.0662 269.6331,252.0822 269.5611,252.0822" id="Fill-19" fill="#000" blush:i="0.4.1.1.0.8"/><path d="M267.6504,246.3431 C267.3274,246.3361 267.1194,246.1281 267.1194,245.8431 C267.1194,245.5661 267.3434,245.3431 267.6194,245.3431 L267.6474,245.3431 C268.8494,245.3431 269.5104,245.2771 269.8694,245.2141 C265.2834,242.4491 251.2294,242.0451 251.0854,242.0411 C250.8104,242.0331 250.5924,241.8041 250.599236,241.5271 C250.6074,241.2561 250.8284,241.0411 251.0994,241.0411 L251.1124,241.0411 C251.7144,241.0581 265.9034,241.4671 270.5594,244.4661 C271.0614,244.7891 271.2604,245.1411 271.1504,245.5131 C270.9964,246.0381 270.3724,246.3431 267.6504,246.3431 L267.6504,246.3431 Z" id="Fill-21" fill="#000" blush:i="0.4.1.1.0.9"/><path d="M210.7788,245.549 C210.7628,245.549 210.7488,245.548 210.7338,245.547 C210.4588,245.523 210.2558,245.28 210.2798,245.005 C212.1458,223.895 213.3678,217.834 213.3808,217.776 C213.4348,217.504 213.7038,217.324 213.9698,217.387 C214.2408,217.443 214.4148,217.706 214.3588,217.977 C214.3468,218.035 213.1348,224.07 211.2758,245.093 C211.2528,245.353 211.0348,245.549 210.7788,245.549" id="Fill-23" fill="#000" blush:i="0.4.1.1.0.10"/><path d="M220.8765,277.1867 C220.6475,277.1867 220.4245,277.1407 220.2075,277.0467 C215.7955,275.1547 217.5815,251.0167 217.9825,246.2157 L206.3075,246.3427 C194.0445,246.4947 186.5905,242.1567 186.2765,241.9717 C186.0395,241.8327 185.9605,241.5267 186.1005,241.2887 C186.2385,241.0487 186.5465,240.9707 186.7835,241.1097 C186.8575,241.1547 194.4095,245.4817 206.2955,245.3427 L218.5225,245.2097 C218.6715,245.2227 218.7995,245.2667 218.8955,245.3707 C218.9905,245.4737 219.0385,245.6137 219.0255,245.7537 C218.0545,256.8197 217.6225,274.8507 220.6025,276.1277 C221.2015,276.3907 222.0085,275.6777 222.5745,275.0347 C224.2705,273.1147 225.0635,269.4957 224.9355,264.2787 C224.9285,264.0017 225.1475,263.7727 225.4225,263.7657 L225.4355,263.7657 C225.7055,263.7657 225.9285,263.9817 225.9355,264.2527 C226.0695,269.7307 225.1915,273.5807 223.3245,275.6967 C222.4495,276.6877 221.6295,277.1867 220.8765,277.1867" id="Fill-25" fill="#000" blush:i="0.4.1.1.0.11"/><path d="M207.5181,278.0636 C199.2581,278.0636 192.8911,276.9076 188.5181,275.7126 C181.4761,273.7886 178.0051,271.4086 177.8621,271.3076 C177.6351,271.1506 177.5791,270.8386 177.7371,270.6126 C177.8931,270.3866 178.2061,270.3316 178.4321,270.4866 C178.5701,270.5826 192.4941,279.9596 220.5441,276.1546 C220.8071,276.1046 221.0691,276.3076 221.1071,276.5826 C221.1441,276.8556 220.9531,277.1076 220.6791,277.1446 C215.8661,277.7986 211.4741,278.0636 207.5181,278.0636" id="Fill-27" fill="#000" blush:i="0.4.1.1.0.12"/><path d="M272.3277,263.2902 C267.7267,263.2902 260.4197,262.3302 255.0207,257.0472 C254.8237,256.8532 254.8197,256.5372 255.0137,256.3402 C255.2057,256.1422 255.5217,256.1402 255.7207,256.3322 C263.7847,264.2242 276.3967,262.0182 276.5207,261.9922 C276.8037,261.9452 277.0537,262.1232 277.1027,262.3942 C277.1537,262.6652 276.9737,262.9262 276.7027,262.9762 C276.6547,262.9842 274.9207,263.2902 272.3277,263.2902" id="Fill-29" fill="#000" blush:i="0.4.1.1.0.13"/><path d="M251.3091,208.005 C251.1361,208.005 250.9751,207.915 250.8831,207.768 L236.8511,184.994 C236.7061,184.759 236.7801,184.45 237.0141,184.306 C237.2491,184.163 237.5571,184.233 237.7031,184.469 L251.2521,206.46 L261.9001,184.057 C262.0181,183.807 262.3181,183.701 262.5661,183.82 C262.8151,183.939 262.9211,184.236 262.8021,184.486 L251.7601,207.72 C251.6821,207.885 251.5191,207.994 251.3361,208.004 C251.3271,208.005 251.3181,208.005 251.3091,208.005" id="Fill-31" fill="#000" blush:i="0.4.1.1.0.14"/></g></g><g id="Hair" transform="translate(104.000000, 285.000000) scale(1 1)" blush:width="312" blush:height="233" blush:component="Hair" blush:i="0.4.1.2" blush:value="Medium Pompadour" blush:viewBox="124.80000000000001 100.10254691689005 65.52000000000005 57.78150134048261"><g id="Hair/Medium Pompadour" stroke="none" stroke-width="1" fill="none" fill-rule="evenodd" blush:viewBox="124.80000000000001 100.10254691689005 65.52000000000005 57.78150134048261" blush:i="0.4.1.2.0"><path d="M185.773394,104.472558 C199.697809,117.303165 167.417524,133.797608 144.5577,124.1015 L141.4087,139.1865 C141.3027,139.6925 140.8567,140.0545 140.3407,140.0545 C139.7517,140.0545 139.2797,139.5895 139.2507,139.0015 C139.2057,138.0305 138.8747,136.7135 137.4477,136.5455 C135.1537,136.2755 135.3427,141.2695 138.4477,143.9695 C138.4477,143.9695 142.4407,148.5675 137.5397,148.9365 C133.9757,149.2055 123.6887,139.7105 126.4717,126.2615 C129.7107,110.6045 143.4787,113.5735 143.4787,113.5735 C143.4787,113.5735 171.84898,91.6419518 185.773394,104.472558 Z" id="Hair" fill="#e7b460" blush:color="Hair-500" blush:i="0.4.1.2.0.0"/><path d="M141.4088,139.1873 C141.3028,139.6923 140.8568,140.0553 140.3408,140.0553 C139.7518,140.0553 139.2798,139.5893 139.2508,139.0013 C139.2048,138.0303 138.8748,136.7133 137.4478,136.5453 C135.1538,136.2753 135.3428,141.2693 138.4478,143.9693 C138.4478,143.9693 141.6208,147.7773 138.7868,148.7053 C142.7848,153.7603 149.1338,156.8723 156.1948,156.3443 C166.1888,155.5963 174.2438,147.3843 174.8288,137.3793 C175.0878,132.9373 174.06517,129.112633 171.87617,125.669633 C162.819049,128.117179 153.0468,128.3943 144.5578,124.1013 L141.4088,139.1873 Z" id="Skin" fill="#f4d4b8" blush:color="Skin-500" blush:i="0.4.1.2.0.1"/><path d="M174.3293,137.3498 C173.7553,147.1618 165.9433,155.1138 156.1573,155.8458 C149.8123,156.3198 143.6623,153.7258 139.5773,148.8828 C140.0703,148.5628 140.2883,148.1498 140.3833,147.8198 C140.8623,146.1508 139.0413,143.8998 138.8083,143.6218 C136.4943,141.2178 135.8543,138.6958 136.4273,137.5438 C136.6203,137.1518 136.9363,136.9908 137.3893,137.0418 C138.0233,137.1168 138.4403,137.5108 138.6343,138.2158 C138.6983,138.4518 138.7373,138.7218 138.7523,139.0258 C138.7573,139.1328 138.7723,139.2368 138.7973,139.3378 C138.9703,140.0408 139.5983,140.5548 140.3413,140.5548 C140.9023,140.5548 141.4113,140.2558 141.6953,139.7968 C141.7463,139.7128 141.7693,139.6138 141.8053,139.5198 C141.8353,139.4428 141.8803,139.3728 141.8973,139.2888 L142.6733,135.5748 C142.6903,135.5378 142.7093,135.5008 142.7183,135.4588 C142.7243,135.4268 142.7173,135.3958 142.7173,135.3638 L143.4063,132.0618 L143.9173,129.6168 C143.9173,129.6158 143.9183,129.6148 143.9183,129.6138 L143.9183,129.6108 L144.9153,124.8348 C145.0023,124.8758 145.0913,124.9108 145.1783,124.9508 C146.1483,125.4268 147.2733,125.8868 148.5943,126.2988 C148.6273,126.3078 148.6593,126.3098 148.6923,126.3128 C156.0253,128.6448 164.2123,128.2188 171.5013,125.9828 C173.5863,129.4168 174.5633,133.3378 174.3293,137.3498 M146.2263,124.3318 C146.2143,124.3268 146.2023,124.3208 146.1893,124.3148 C145.9563,124.2138 145.7303,124.0998 145.5013,123.9918 C141.5413,122.0058 140.5813,119.7638 140.5683,119.7328 C140.4673,119.4768 140.1773,119.3508 139.9223,119.4518 C139.6643,119.5518 139.5373,119.8418 139.6383,120.0998 C139.6833,120.2168 140.5493,122.3118 144.0013,124.3228 L143.0443,128.9068 C141.6033,128.4908 140.7713,127.5828 139.7523,126.4568 C139.5443,126.2268 139.3303,125.9918 139.1053,125.7538 C138.9153,125.5528 138.6003,125.5438 138.3983,125.7338 C138.1983,125.9228 138.1893,126.2398 138.3793,126.4398 C138.5993,126.6728 138.8073,126.9038 139.0113,127.1288 C140.0673,128.2958 141.0803,129.3968 142.8403,129.8838 L142.4943,131.5418 L141.8263,134.7388 C139.8473,134.1688 138.0073,132.5728 136.7743,131.2678 C136.5853,131.0668 136.2683,131.0578 136.0673,131.2478 C135.8673,131.4368 135.8583,131.7538 136.0483,131.9538 C137.3823,133.3668 139.3963,135.1008 141.6223,135.7178 L140.9193,139.0848 C140.8623,139.3568 140.6193,139.5548 140.3413,139.5548 C140.0253,139.5548 139.7663,139.3008 139.7503,138.9778 C139.6693,137.2498 138.8723,136.2088 137.5063,136.0488 C137.5033,136.0478 137.5013,136.0498 137.4983,136.0488 C136.6203,135.9508 135.9113,136.3318 135.5313,137.0988 C134.7893,138.5938 135.4293,141.5518 138.0623,144.2888 C138.5063,144.8208 139.7053,146.5618 139.4223,147.5438 C139.3303,147.8608 139.0713,148.0848 138.6313,148.2298 C138.4753,148.2808 138.3543,148.4038 138.3083,148.5608 C138.2603,148.7168 138.2933,148.8868 138.3933,149.0148 C142.3533,154.0218 148.3503,156.9008 154.6743,156.9008 C155.1903,156.9008 155.7113,156.8818 156.2313,156.8428 C166.5153,156.0738 174.7253,147.7188 175.3273,137.4088 C175.5683,133.2708 174.801211,129.592023 172.908542,126.4568 C172.044931,124.801702 172.111895,124.493345 171.666087,124.693792 C164.309915,128.001323 151.119577,126.457277 146.2263,124.3318 Z" id="Fill-6" fill="#000" blush:i="0.4.1.2.0.2"/></g></g><g id="Expression" transform="translate(201.000000, 388.000000) scale(1 1)" blush:width="119" blush:height="95" blush:component="Expression" blush:i="0.4.1.3" blush:value="Surprised" blush:viewBox="48.79000000000002 22.797619047619037 25.585000000000022 24.404761904761916"><g id="Expression/Surprised" stroke="none" stroke-width="1" fill="none" fill-rule="evenodd" blush:viewBox="48.79000000000002 22.797619047619037 25.585000000000022 24.404761904761916" blush:i="0.4.1.3.0"><path d="M59.6017,46.1704 C59.0837,46.1704 58.6457,45.5464 58.6457,44.8084 C58.6457,44.0694 59.0837,43.4454 59.6017,43.4454 C60.1197,43.4454 60.5577,44.0694 60.5577,44.8084 C60.5577,45.5464 60.1197,46.1704 59.6017,46.1704 M59.6017,42.4454 C58.5237,42.4454 57.6457,43.5054 57.6457,44.8084 C57.6457,46.1104 58.5237,47.1704 59.6017,47.1704 C60.6807,47.1704 61.5577,46.1104 61.5577,44.8084 C61.5577,43.5054 60.6807,42.4454 59.6017,42.4454 M64.1497,37.0274 C63.8607,37.6364 63.0667,37.9454 61.7897,37.9454 C60.5117,37.9454 59.7177,37.6364 59.4287,37.0274 C58.7337,35.5634 60.6367,32.5254 61.7897,30.9864 C62.9417,32.5254 64.8447,35.5634 64.1497,37.0274 M61.4017,29.8564 C60.9817,30.3704 57.3357,34.9474 58.5247,37.4564 C58.9937,38.4444 60.0917,38.9454 61.7897,38.9454 C63.4867,38.9454 64.5847,38.4444 65.0537,37.4564 C66.2427,34.9474 62.5967,30.3704 62.1767,29.8564 C61.9857,29.6244 61.5917,29.6244 61.4017,29.8564 M55.2057,23.5004 C55.2057,23.2234 54.9827,23.0004 54.7057,23.0004 C51.7517,23.0004 50.0537,24.6644 49.9827,24.7354 C49.7877,24.9304 49.7877,25.2474 49.9827,25.4424 C50.0807,25.5404 50.2087,25.5884 50.3367,25.5884 C50.4647,25.5884 50.5927,25.5404 50.6897,25.4424 C50.7047,25.4284 52.1617,24.0004 54.7057,24.0004 C54.9827,24.0004 55.2057,23.7764 55.2057,23.5004 M73.4927,24.7354 C73.4217,24.6644 71.7237,23.0004 68.7697,23.0004 C68.4937,23.0004 68.2697,23.2234 68.2697,23.5004 C68.2697,23.7764 68.4937,24.0004 68.7697,24.0004 C71.2927,24.0004 72.7727,25.4294 72.7877,25.4434 C72.8847,25.5404 73.0117,25.5874 73.1387,25.5874 C73.2677,25.5874 73.3957,25.5384 73.4937,25.4404 C73.6877,25.2454 73.6877,24.9304 73.4927,24.7354 M54.7057,28.4254 C54.0477,28.4254 53.5147,29.2074 53.5147,30.1724 C53.5147,31.1384 54.0477,31.9204 54.7057,31.9204 C55.3637,31.9204 55.8977,31.1384 55.8977,30.1724 C55.8977,29.2074 55.3637,28.4254 54.7057,28.4254 M68.7697,28.4254 C68.1117,28.4254 67.5787,29.2074 67.5787,30.1724 C67.5787,31.1384 68.1117,31.9204 68.7697,31.9204 C69.4277,31.9204 69.9617,31.1384 69.9617,30.1724 C69.9617,29.2074 69.4277,28.4254 68.7697,28.4254" id="Fill-4" fill="#000" blush:i="0.4.1.3.0.0"/><path d="M52.4996066,33 C54.4327301,33 56,33.8954741 56,35 C56,36.1045259 54.4327301,37 52.4996066,37 C50.5664831,37 49,36.1045259 49,35 C49,33.8954741 50.5664831,33 52.4996066,33 Z M70.5,33 C72.4329063,33 74,33.8954741 74,35 C74,36.1045259 72.4329063,37 70.5,37 C68.5670937,37 67,36.1045259 67,35 C67,33.8954741 68.5670937,33 70.5,33 Z" id="Cheeks" fill="#E2A2B5" blush:i="0.4.1.3.0.1"/></g></g><g id="Facial Hair" transform="translate(201.000000, 387.000000) scale(1 1)" fill="#000" blush:width="119" blush:height="95" blush:component="Facial Hair" blush:i="0.4.1.4" blush:value="Full Beard" blush:viewBox="41.650000000000006 38.27380952380952 33.32000000000003 20.238095238095237"><g id="Facial Hair/Full Beard" stroke="none" stroke-width="1" fill="none" fill-rule="evenodd" blush:viewBox="41.650000000000006 38.27380952380952 33.32000000000003 20.238095238095237" blush:i="0.4.1.4.0"><path d="M49.6672616,45.9901 C49.6672616,43.4141 55.3657642,40.3009584 59.8849284,40.3009584 C64.4040926,40.3009584 69.6672616,41.8251834 69.6672616,44.4011834 C69.6672616,45.7389446 66.5704156,48.6516044 59.8849284,49.4012977 C53.1994412,50.150991 49.6672616,47.290908 49.6672616,45.9901 Z M47.7258758,44.0425193 C44.4942908,47.6714632 43.0628554,48.1872172 43.0628554,48.1872172 C65.8471694,70.7255535 74.2657333,44.9127904 74.2657333,44.0425193 C69.3437808,43.134869 67.8337858,38.9413572 60.9712699,38.9413572 C54.1087539,38.9413572 50.9574609,40.4135755 47.7258758,44.0425193 Z" id="Beard" fill="#e7b460" blush:color="Hair-500" blush:i="0.4.1.4.0.0"/><path d="M60.9514212,38.4417514 C64.5760205,38.2977513 66.6042105,39.0215418 69.3469303,40.9470717 L70.1435,41.5184356 C71.7499252,42.6733304 72.7421106,43.210779 74.097732,43.4994997 L74.3564087,43.5508101 L74.7657333,43.6262931 L74.7657333,44.0425193 C74.7657333,45.9086 71.1690402,52.3331251 67.0630725,55.3111907 C60.4966865,60.0738019 53.1785175,58.6452599 43.1827877,48.9122737 L42.1909284,47.9338247 L43.070709,47.7271612 C43.1183404,47.7159725 43.2330111,47.6797818 43.409524,47.6086723 C43.7188825,47.484045 44.0795103,47.3046359 44.4862174,47.0604148 C45.5843428,46.4010079 45.78623,45.4142435 47.0578079,44.0352278 L47.3524706,43.7100009 C50.8135352,39.8233605 53.5348457,38.7364011 60.9514212,38.4417514 Z M69.8734552,42.5535143 L69.0596784,41.9697788 C66.3288967,40.0054062 64.4916176,39.3018934 60.9911185,39.4409631 L60.1536797,39.4786009 C53.9008574,39.7948499 51.4394425,40.7703962 48.4874567,43.9479585 L48.0992811,44.3750378 C46.6523651,45.9998679 46.2715683,47.1547795 45.0010182,47.9177246 C44.788088,48.0455858 44.5899201,48.1560233 44.4074313,48.2506442 L44.2302028,48.3400523 L44.095,48.404 L44.2273384,48.5310561 C53.5052523,57.4232563 60.0388217,58.8322622 66.0294042,54.8133586 L66.2561533,54.6581371 L66.4759448,54.5016963 C68.6912042,52.8949649 70.5515801,50.6111729 72.0208873,47.9866508 C72.6990931,46.7752184 73.2930768,45.432202 73.5810796,44.6585474 L73.664,44.426 L73.6057533,44.4130563 C72.4125048,44.1221321 71.4525609,43.6367331 70.1743321,42.7623009 L69.8734552,42.5535143 Z M59.8849284,39.8009584 C65.2571339,39.8009584 70.1672616,41.6365081 70.1672616,44.4011834 C70.1672616,46.5794731 65.8428519,49.2363254 59.9406479,49.8981833 C54.0996259,50.5531805 49.1672616,48.3035378 49.1672616,45.9901 C49.1672616,43.0773939 55.0916679,39.8009584 59.8849284,39.8009584 Z M59.8849284,40.8009584 C55.5704985,40.8009584 50.1672616,43.7891662 50.1672616,45.9901 C50.1672616,46.4674746 51.0523315,47.3601484 52.476524,48.0097201 C54.3664632,48.871718 56.885963,49.2344601 59.8292089,48.904412 C65.2870104,48.2923882 69.1672616,45.9084202 69.1672616,44.4011834 C69.1672616,42.4571606 64.7368918,40.8009584 59.8849284,40.8009584 Z" id="Beard-Copy" fill="#000" fill-rule="nonzero" blush:i="0.4.1.4.0.1"/></g></g><g id="Accesories" transform="translate(104.500000, 286.000000) scale(1 1)" blush:width="312" blush:height="233" blush:component="Accesories" blush:i="0.4.1.5" blush:value="Earpods" blush:viewBox="134.15999999999997 134.45911528150134 7.800000000000007 10.931635388739954"><g id="Accesories/Earpods" stroke="none" stroke-width="1" fill="none" fill-rule="evenodd" blush:viewBox="134.15999999999997 134.45911528150134 7.800000000000007 10.931635388739954" blush:i="0.4.1.5.0"><path d="M139.1182,138.9451 C139.6212,138.5371 139.9492,137.9221 139.9492,137.2241 C139.9492,135.9961 138.9532,135.0001 137.7242,135.0001 C136.4962,135.0001 135.5002,135.9961 135.5002,137.2241 C135.5002,138.4251 136.4532,139.3971 137.6432,139.4411 L138.6832,142.9921 C138.9542,143.9131 139.7992,144.5461 140.7592,144.5461 L139.1182,138.9451 Z" id="Earpods" fill="#F1EFEF" blush:i="0.4.1.5.0.0"/><path d="M140.7588,144.0462 C140.0268,144.0462 139.3698,143.5552 139.1628,142.8512 L138.2948,139.8862 C139.5238,139.6232 140.4488,138.5312 140.4488,137.2242 C140.4488,136.9482 140.2258,136.7242 139.9488,136.7242 C139.6728,136.7242 139.4488,136.9482 139.4488,137.2242 C139.4488,138.1752 138.6758,138.9492 137.7248,138.9492 C136.7738,138.9492 135.9998,138.1752 135.9998,137.2242 C135.9998,136.9482 135.7768,136.7242 135.4998,136.7242 C135.2238,136.7242 134.9998,136.9482 134.9998,137.2242 C134.9998,138.5672 135.9788,139.6792 137.2578,139.9012 L138.2038,143.1322 C138.5338,144.2592 139.5848,145.0462 140.7588,145.0462 C141.0348,145.0462 141.2588,144.8222 141.2588,144.5462 C141.2588,144.2702 141.0348,144.0462 140.7588,144.0462" id="Fill-4" fill="#000" blush:i="0.4.1.5.0.1"/></g></g></g></g><g id="Table top" transform="translate(152.000000, 185.000000) scale(1 1)" blush:width="172" blush:height="156" blush:component="Table top" blush:i="0.5" blush:value="Tea Cup" blush:viewBox="72.24000000000001 115.45033112582783 43.85999999999994 40.463576158940384"><g id="Table top/Tea Cup" stroke="none" stroke-width="1" fill="none" fill-rule="evenodd" blush:viewBox="72.24000000000001 115.45033112582783 43.85999999999994 40.463576158940384" blush:i="0.5.0"><g id="Tea-Cup" transform="translate(72.000000, 116.000000)" blush:i="0.5.0.0"><path d="M18.4248,39.6089 L15.4658,39.6089 C9.1788,39.6089 3.9128,34.8489 3.2808,28.5939 L0.3958,0.0699 L33.4958,0.0699 L30.6108,28.5939 C29.9778,34.8489 24.7118,39.6089 18.4248,39.6089" id="Cup" fill="#EC7068" blush:i="0.5.0.0.0"/><path d="M31.5225,31.2446 C30.5605,31.2446 29.5285,31.1966 28.4185,31.1146 C28.0865,31.0896 27.8375,30.8016 27.8625,30.4706 C27.8865,30.1386 28.2005,29.8926 28.5065,29.9136 C36.9305,30.5396 40.0665,29.1476 42.0875,19.7136 C43.2185,14.4406 43.0415,10.9136 41.5465,8.9316 C39.7545,6.5536 36.0225,6.2986 31.7005,6.0036 L30.2835,5.9046 C29.9515,5.8806 29.7025,5.5916 29.7265,5.2606 C29.7515,4.9286 30.0605,4.6826 30.3715,4.7036 L31.7815,4.8036 C36.3985,5.1176 40.3845,5.3896 42.5085,8.2066 C44.2495,10.5166 44.4895,14.2536 43.2655,19.9656 C41.3265,29.0136 38.0565,31.2446 31.5225,31.2446" id="Fill-9" fill="#000" blush:i="0.5.0.0.1"/><path d="M28.4629,9.2476 C27.5509,9.2476 26.8129,9.9866 26.8129,10.8986 C26.8129,11.8106 27.5509,12.5506 28.4629,12.5506 C29.3749,12.5506 30.1139,11.8106 30.1139,10.8986 C30.1139,9.9866 29.3749,9.2476 28.4629,9.2476 M8.4889,26.4826 C7.5769,26.4826 6.8379,27.2226 6.8379,28.1346 C6.8379,29.0456 7.5769,29.7846 8.4889,29.7846 C9.4009,29.7846 10.1399,29.0456 10.1399,28.1346 C10.1399,27.2226 9.4009,26.4826 8.4889,26.4826 M20.2469,4.2956 C20.2469,3.3836 19.5079,2.6436 18.5969,2.6436 C17.6849,2.6436 16.9449,3.3836 16.9449,4.2956 C16.9449,5.2066 17.6849,5.9456 18.5969,5.9456 C19.5079,5.9456 20.2469,5.2066 20.2469,4.2956 M22.5429,20.9346 C21.6309,20.9346 20.8919,21.6736 20.8919,22.5846 C20.8919,23.4966 21.6309,24.2356 22.5429,24.2356 C23.4539,24.2356 24.1929,23.4966 24.1929,22.5846 C24.1929,21.6736 23.4539,20.9346 22.5429,20.9346 M20.2469,32.5626 C19.3359,32.5626 18.5969,33.3026 18.5969,34.2146 C18.5969,35.1266 19.3359,35.8656 20.2469,35.8656 C21.1589,35.8656 21.8989,35.1266 21.8989,34.2146 C21.8989,33.3026 21.1589,32.5626 20.2469,32.5626 M13.8049,12.3046 C12.8929,12.3046 12.1529,13.0436 12.1529,13.9556 C12.1529,14.8676 12.8929,15.6056 13.8049,15.6056 C14.7159,15.6056 15.4549,14.8676 15.4549,13.9556 C15.4549,13.0436 14.7159,12.3046 13.8049,12.3046 M5.1869,4.2956 C4.2759,4.2956 3.5359,5.0336 3.5359,5.9456 C3.5359,6.8576 4.2759,7.5976 5.1869,7.5976 C6.0989,7.5976 6.8379,6.8576 6.8379,5.9456 C6.8379,5.0336 6.0989,4.2956 5.1869,4.2956" id="Dots" fill="#F1EFEF" blush:i="0.5.0.0.2"/></g></g></g><g id="Pet" transform="translate(151.254800, 401.770000) scale(1 1)" blush:width="210" blush:height="128" blush:component="Pet" blush:i="0.6" blush:value="Dog" blush:viewBox="44.099999999999994 80.26229508196724 123.89999999999999 48.26229508196722"><g id="Pet/Dog" stroke="none" stroke-width="1" fill="none" fill-rule="evenodd" blush:viewBox="44.099999999999994 80.26229508196724 123.89999999999999 48.26229508196722" blush:i="0.6.0"><g id="Dog" transform="translate(45.000000, 81.000000)" blush:i="0.6.0.0"><path d="M121.725239,42.456 C121.725239,42.456 120.953239,33.704 98.9662389,40.288 C104.863239,36.967 109.027239,30.932 109.720239,23.862 C109.797239,23.403 109.826239,23.135 109.826239,23.135 C109.826239,23.135 109.800239,23.12 109.759239,23.098 C109.787239,22.653 109.826239,22.213 109.826239,21.762 C109.826239,10.016 100.304239,0.493 88.5582389,0.493 C88.5582389,0.493 88.5472389,0.493 88.5402389,0.494 C87.1892389,0.495 85.8712389,0.635 84.5902389,0.877 C78.8512389,1.586 67.6192389,3.542 55.8352389,8.694 C50.5702389,5.859 43.8832389,4.21 36.6982389,4.439 C21.3832389,4.931 4.69623888,30.199 0.732238878,36.56 C0.242238878,37.348 0.555238878,38.411 1.41523888,38.76 C12.6192389,43.3 31.8372389,27.91 31.6202389,28.156 C30.7032389,29.197 29.8112389,30.275 28.9552389,31.401 C14.7012389,50.152 47.0732389,47.348 47.7172389,43.09 C48.9442389,43.068 58.2462389,42.552 60.3602389,42.31 C60.2052389,42.718 60.1112389,43.138 60.1112389,43.573 C60.1112389,49.533 88.5582389,43.03 88.5582389,43.03 C90.2232389,43.03 91.8352389,42.818 93.3902389,42.456 L121.725239,42.456 Z" id="Dog-hair" fill="#DE915E" blush:i="0.6.0.0.0"/><path d="M121.729639,41.956 L94.3226389,41.725 L88.4466389,42.543 C88.2446389,42.589 88.0326389,42.637 87.8106389,42.686 C85.8096389,43.13 82.9986389,43.693 79.9346389,44.205 C79.2536389,44.318 78.5606389,44.43 77.8616389,44.536 C74.0136389,45.124 69.9756389,45.577 66.7656389,45.584 C64.1396389,45.59 62.0676389,45.297 61.1096389,44.533 C60.7696389,44.262 60.6106389,43.957 60.6106389,43.573 C60.6106389,43.227 60.6816389,42.871 60.8276389,42.487 C60.8306389,42.481 60.8276389,42.475 60.8296389,42.469 C62.4326389,38.29 72.7186389,35.417 76.7946389,34.279 C77.5646389,34.064 78.1666389,33.896 78.5306389,33.775 C78.5836389,33.758 78.6286389,33.726 78.6726389,33.691 C78.7046389,33.729 78.7306389,33.769 78.7626389,33.808 C80.0476389,35.305 81.9126389,36.11 84.3066389,36.202 L84.3266389,36.202 C84.5936389,36.202 84.8146389,35.99 84.8256389,35.721 C84.8356389,35.445 84.6206389,35.213 84.3446389,35.202 C82.2436389,35.123 80.6216389,34.435 79.5256389,33.161 C77.5056389,30.811 77.8886389,27.193 77.8926389,27.157 C77.8986389,27.104 77.8896389,27.056 77.8796389,27.007 C78.1836389,24.345 79.5876389,21.341 83.6796389,19.159 C83.9236389,19.029 84.0156389,18.727 83.8856389,18.482 C83.7546389,18.239 83.4536389,18.146 83.2086389,18.276 C78.7436389,20.658 77.2386389,24.006 76.9266389,26.957 C76.9176389,26.985 76.9026389,27.012 76.8996389,27.043 C76.8936389,27.097 76.8466389,27.54 76.8616389,28.202 C76.8586389,30.338 77.3976389,32.132 77.7086389,32.982 C77.3866389,33.076 76.9876389,33.187 76.5256389,33.316 C72.0166389,34.574 62.1246389,37.339 60.0176389,41.842 C57.7976389,42.062 50.9286389,42.454 48.4696389,42.561 C48.7316389,41.71 48.6576389,40.911 48.2276389,40.183 C47.5596389,39.049 46.0626389,38.227 44.2746389,37.627 C44.2806389,37.556 44.3056389,37.464 44.3816389,37.355 C44.8566389,36.675 47.2386389,35.168 59.0756389,35.941 C59.3446389,35.969 59.5886389,35.75 59.6066389,35.475 C59.6246389,35.199 59.4156389,34.961 59.1396389,34.943 C49.9546389,34.349 44.6976389,34.988 43.5176389,36.851 C43.4106389,37.019 43.3486389,37.181 43.3126389,37.331 C39.1696389,36.175 34.0546389,36.046 33.7296389,36.039 C33.4286389,36.028 33.2246389,36.253 33.2186389,36.528 C33.2126389,36.805 33.4326389,37.033 33.7086389,37.039 C36.9496389,37.108 45.7226389,37.901 47.3656389,40.69 C47.7386389,41.323 47.7086389,42.031 47.2746389,42.857 C47.2686389,42.868 47.2696389,42.881 47.2646389,42.892 C47.2476389,42.931 47.2296389,42.971 47.2226389,43.015 C47.1336389,43.603 45.6856389,44.521 42.7156389,45.144 C37.4956389,46.242 29.0226389,46.014 26.5346389,42.08 C25.0076389,39.665 25.9566389,36.174 29.3546389,31.704 C29.9276389,30.95 30.5416389,30.2 31.1816389,29.443 C31.7906389,28.782 34.3546389,25.937 35.4686389,23.8 C35.5966389,23.555 35.5016389,23.253 35.2566389,23.125 C35.0116389,22.998 34.7086389,23.092 34.5826389,23.337 C33.8386389,24.765 32.3476389,26.595 31.3406389,27.759 C31.2456389,27.813 31.1506389,27.878 31.0566389,27.947 C26.8786389,31.065 13.3906389,40.415 3.95663888,38.929 C8.36763888,35.223 3.43763888,32.408 3.43663888,32.407 C3.43263888,32.413 3.42963888,32.418 3.42563888,32.424 C3.42263888,32.422 3.42163888,32.419 3.41863888,32.417 C3.18763888,32.268 2.87763888,32.333 2.72763888,32.564 L0.308638878,36.296 C-0.0103611222,36.808 -0.0863611222,37.431 0.100638878,38.005 C0.281638878,38.562 0.692638878,39.006 1.22763888,39.224 C9.52263888,42.582 21.7716389,35.624 28.7826389,30.806 C28.7076389,30.903 28.6326389,31.001 28.5586389,31.099 C24.8806389,35.935 23.9166389,39.81 25.6886389,42.614 C27.6416389,45.702 32.4596389,46.71 36.9636389,46.71 C39.1436389,46.71 41.2496389,46.474 42.9216389,46.123 C44.6276389,45.766 47.4216389,44.978 48.0836389,43.579 C49.9776389,43.507 56.8926389,43.12 59.6776389,42.878 C59.6756389,42.891 59.6766389,42.903 59.6746389,42.915 C59.6366389,43.132 59.6106389,43.35 59.6106389,43.573 C59.6106389,44.266 59.9056389,44.852 60.4866389,45.315 C60.6286389,45.429 60.7886389,45.532 60.9656389,45.628 C61.0296389,45.663 61.1066389,45.69 61.1746389,45.724 C61.2956389,45.78 61.4126389,45.84 61.5466389,45.891 C61.6366389,45.925 61.7396389,45.953 61.8356389,45.984 C61.9626389,46.026 62.0846389,46.069 62.2216389,46.106 C62.3326389,46.136 62.4556389,46.16 62.5716389,46.186 C62.7076389,46.218 62.8386389,46.251 62.9826389,46.277 C63.1096389,46.302 63.2466389,46.319 63.3796389,46.34 C63.5266389,46.363 63.6706389,46.388 63.8246389,46.407 C63.9646389,46.425 64.1136389,46.436 64.2596389,46.451 C64.4176389,46.468 64.5726389,46.485 64.7366389,46.497 C64.8906389,46.509 65.0526389,46.516 65.2116389,46.524 C65.3776389,46.534 65.5416389,46.544 65.7126389,46.551 C65.8806389,46.557 66.0556389,46.559 66.2286389,46.561 C66.3996389,46.564 66.5676389,46.569 66.7426389,46.569 C66.7776389,46.569 66.8116389,46.571 66.8476389,46.571 C67.1236389,46.571 67.4056389,46.567 67.6906389,46.561 C67.7186389,46.56 67.7476389,46.56 67.7756389,46.56 C68.0806389,46.552 68.3906389,46.541 68.7046389,46.527 C68.7876389,46.523 68.8716389,46.519 68.9556389,46.516 C69.2396389,46.502 69.5256389,46.485 69.8156389,46.468 C69.8806389,46.463 69.9446389,46.46 70.0106389,46.455 C70.3706389,46.432 70.7336389,46.404 71.1016389,46.374 C71.1216389,46.372 71.1426389,46.37 71.1636389,46.368 C71.5076389,46.339 71.8536389,46.308 72.2016389,46.272 C72.2716389,46.267 72.3416389,46.259 72.4126389,46.252 C72.7466389,46.219 73.0826389,46.183 73.4186389,46.145 C73.4536389,46.142 73.4886389,46.138 73.5236389,46.134 C73.9126389,46.09 74.3006389,46.043 74.6896389,45.995 C74.6936389,45.994 74.6976389,45.993 74.7006389,45.993 C75.0736389,45.946 75.4456389,45.897 75.8156389,45.847 C75.8666389,45.841 75.9166389,45.833 75.9676389,45.826 C77.1286389,45.667 78.2726389,45.493 79.3736389,45.313 C79.3816389,45.312 79.3906389,45.31 79.3996389,45.31 C84.2326389,44.519 88.1756389,43.63 88.6476389,43.522 L94.3876389,42.72 L121.720639,42.956 L121.725639,42.956 C121.999639,42.956 122.222639,42.735 122.225652,42.46 C122.227639,42.185 122.005639,41.958 121.729639,41.956 M23.5786389,18.934 C23.8606389,19.028 24.4686389,19.144 25.2176389,19.144 C26.7256389,19.144 28.8066389,18.673 29.9566389,16.603 C30.0906389,16.361 30.0036389,16.058 29.7616389,15.923 C29.5216389,15.791 29.2166389,15.877 29.0826389,16.117 C27.6466389,18.702 24.4976389,18.122 23.9636389,18.002 C23.8776389,17.941 23.7696389,17.908 23.6586389,17.913 C23.4176389,17.924 23.1976389,18.111 23.1636389,18.35 C23.1296389,18.589 23.3506389,18.857 23.5786389,18.934 M66.9556389,26.231 C68.7926389,14.488 54.2216389,3.878 36.6976389,4.439 L36.3606389,11.853 C34.2266389,32.858 65.1166389,37.975 66.9556389,26.231 M88.5576389,0.993 C100.009639,0.993 109.326639,10.31 109.326639,21.762 C109.326639,22.098 109.303639,22.428 109.280639,22.758 L109.259639,23.066 C109.255639,23.134 109.272639,23.204 109.305639,23.271 C109.288639,23.391 109.263639,23.562 109.227639,23.779 C109.181639,24.052 109.365639,24.31 109.637639,24.355 C109.665639,24.36 109.693639,24.362 109.720639,24.362 C109.960639,24.362 110.172639,24.189 110.213639,23.945 C110.293639,23.468 110.323639,23.188 110.323639,23.188 C110.332639,23.108 110.310639,23.023 110.270639,22.944 L110.277639,22.827 C110.302639,22.474 110.326639,22.121 110.326639,21.762 C110.326639,9.762 100.568639,0 88.4776389,0 L88.4646389,0 C88.1916389,0.042 87.9756389,0.3 88.0176389,0.572 C88.0596389,0.846 88.2856389,1.038 88.5576389,0.993" id="Fill-17" fill="#000" blush:i="0.6.0.0.1"/></g></g></g></g></svg>