<?xml version="1.0" encoding="UTF-8"?>
<svg width="645px" height="540px" viewBox="0 0 645 540" version="1.1" xmlns="http://www.w3.org/2000/svg" xmlns:xlink="http://www.w3.org/1999/xlink">
    <title>login_auth</title>
    <defs>
        <linearGradient x1="50%" y1="0%" x2="50%" y2="100%" id="linearGradient-1">
            <stop stop-color="#FAFAFA" offset="0%"></stop>
            <stop stop-color="#EFEFEF" offset="100%"></stop>
        </linearGradient>
        <path d="M175.423783,0.53432188 L4.96914718,29.4167204 C2.24653141,29.8780494 0.413396321,32.4591466 0.874725362,35.1817624 C0.876942705,35.1948485 0.879212145,35.2079256 0.881533628,35.2209936 L20.2616276,144.314438 C21.0282606,148.629929 25.1247146,151.525019 29.4485839,150.80714 L193.873536,123.508189 C198.23215,122.784542 201.178873,118.664555 200.455226,114.305941 C200.451135,114.281301 200.446929,114.256679 200.442607,114.232078 L181.183687,4.59896522 C180.707952,1.89080316 178.134771,0.07496313 175.423783,0.53432188 Z" id="path-2"></path>
        <path d="M0.998624725,3.61721628 L52.1138014,0.0691749778 C52.6643604,0.0309592054 53.1417942,0.445984549 53.1805754,0.996503976 L56.5850626,49.3249738 C56.623872,49.8758933 56.2087247,50.353963 55.6578052,50.3927724 C55.6574637,50.3927965 55.6571222,50.3928203 55.6567807,50.392844 L4.54160401,53.9408853 C3.99104504,53.9791011 3.51361119,53.5640758 3.47482998,53.0135563 L0.0703428207,4.68508651 C0.0315334334,4.13416702 0.446680691,3.65609732 0.997600174,3.61728793 C0.997941679,3.61726387 0.998283196,3.61723999 0.998624725,3.61721628 Z" id="path-4"></path>
        <path d="M52.1138014,0.0691749778 C52.6643604,0.0309592054 53.1417942,0.445984549 53.1805754,0.996503976 L56.5850626,49.3249738 C56.623872,49.8758933 56.2087247,50.353963 55.6578052,50.3927724 L4.54160401,53.9408853 C3.99104504,53.9791011 3.51361119,53.5640758 3.47482998,53.0135563 L0.0703428207,4.68508651 C0.0315334334,4.13416702 0.446680691,3.65609732 0.997600174,3.61728793 L52.1138014,0.0691749778 Z" id="path-6"></path>
        <linearGradient x1="87.1978221%" y1="35.5778479%" x2="4.82073155%" y2="66.7050512%" id="linearGradient-8">
            <stop stop-color="#FDFDFD" offset="0%"></stop>
            <stop stop-color="#F2F2F2" offset="100%"></stop>
        </linearGradient>
    </defs>
    <g id="Page-1" stroke="none" stroke-width="1" fill="none" fill-rule="evenodd">
        <g id="login_auth">
            <g id="FjyBxC0bzm2PyXNtsKJe9AyKIbNp">
                <g id="路径-77" transform="translate(0.000000, 30.443505)">
                    <g id="编组" transform="translate(0.000000, 0.046045)">
                        <path d="M139.777601,165.010839 C249.289014,137.298452 323.838811,20.1419195 436.278,2.79772112 C482.872277,-4.38997255 526.26073,0.836807483 570.18,35.4642252 C611.011115,67.6568345 635.922061,112.13499 641.788074,153.17044 C652.848953,230.558146 633.673277,283.697076 572.365155,342.569784 C522.045568,390.889623 458.429392,423.232067 392.203581,445.211548 C322.379716,468.385348 249.587108,482.61003 176.171291,487.426508 C137.683966,489.952785 99.459,484.158028 67.119223,463.149857 C38.5561824,444.593917 18.2116622,417.658577 8.86264865,384.918027 C-4.51151351,338.077366 -4.24305405,284.981993 20.0516554,242.753966 C40.0989527,207.908765 61.7875135,190.102868 106.664696,174.682996 C117.543405,170.944977 128.625203,167.833301 139.777601,165.010839 Z" id="Fill-1" fill="url(#linearGradient-1)" fill-rule="nonzero"></path>
                        <g id="编组-6" transform="translate(66.118520, 224.009281)">
                            <path d="M250.266427,124.48908 L298.28776,188.481235 C299.613725,190.248186 299.256235,192.755488 297.489285,194.081453 C297.006295,194.4439 296.447512,194.69229 295.85484,194.807993 L269.986904,199.858028 L269.986904,199.858028 L277.770524,243.384837 C278.742718,248.821443 275.123596,254.016801 269.68699,254.988994 C269.657752,254.994223 269.628491,254.999321 269.599208,255.004289 L109.357325,282.188128 C104.013029,283.094748 98.919455,279.578282 97.8729309,274.259612 L96.0953274,265.225433 L96.0953274,265.225433 L244.212206,124.48908 L250.266427,124.48908 Z" id="路径-79" fill="#8C8C8C" fill-rule="nonzero"></path>
                            <g id="路径-80" transform="translate(71.412471, 127.231340)">
                                <g id="蒙版" fill="#FFFFFF" fill-rule="nonzero">
                                    <path d="M175.423783,0.53432188 L4.96914718,29.4167204 C2.24653141,29.8780494 0.413396321,32.4591466 0.874725362,35.1817624 C0.876942705,35.1948485 0.879212145,35.2079256 0.881533628,35.2209936 L20.2616276,144.314438 C21.0282606,148.629929 25.1247146,151.525019 29.4485839,150.80714 L193.873536,123.508189 C198.23215,122.784542 201.178873,118.664555 200.455226,114.305941 C200.451135,114.281301 200.446929,114.256679 200.442607,114.232078 L181.183687,4.59896522 C180.707952,1.89080316 178.134771,0.07496313 175.423783,0.53432188 Z" id="path-2"></path>
                                </g>
                                <g id="Path-Clipped">
                                    <mask id="mask-3" fill="white">
                                        <use xlink:href="#path-2"></use>
                                    </mask>
                                    <g id="path-2"></g>
                                    <path d="M8.51635839,27.7549245 L-1.29368559,24.3275309 L49.5607746,96.0461016 C50.9077034,97.9456361 53.2320661,98.8942884 55.5234744,98.4796841 L229.19176,67.0563791 L229.19176,67.0563791 L181.632299,-5.20555924 L8.51635839,27.7549245 Z" id="Path" fill="#D8D8D8" fill-rule="nonzero" mask="url(#mask-3)"></path>
                                </g>
                            </g>
                            <path d="M103.210237,151.207326 L103.722547,153.10532 C103.990508,154.098055 104.967571,154.725835 105.981875,154.556978 L217.119485,136.055257 C218.20906,135.873869 218.94529,134.843551 218.763903,133.753977 C218.753885,133.693803 218.74112,133.634118 218.725647,133.575111 L218.041419,130.965789 L218.041419,130.965789 L103.210237,151.207326 Z" id="路径-76" stroke="#191919" fill="#191919" fill-rule="nonzero"></path>
                            <polygon id="路径-78" fill="#4A4A4A" fill-rule="nonzero" points="56.051808 79.621713 74.929195 153.525383 247.293261 122.025781 240.73103 31.4085962 51.8944471 64.3769379"></polygon>
                            <path d="M53.0546514,63.823103 L74.2314056,150.097183 C74.5437136,151.369525 75.7852894,152.184962 77.0769889,151.966092 L242.843231,123.87811 C245.145837,123.487949 246.76729,121.401138 246.576394,119.073525 L239.58066,33.773861 C239.377515,31.296896 237.204856,29.4536005 234.727891,29.6567454 C234.572086,29.6695235 234.417053,29.6904119 234.263422,29.7193255 L53.0546514,63.823103 Z" id="路径-75" stroke="#191919" stroke-width="9"></path>
                            <path d="M155.613356,124.568696 L155.61354,133.899446 L170.985007,121.985223 L246.942625,111.502122 C252.879813,110.682715 257.302026,105.608264 257.302026,99.614799 L257.302026,80.5484222 C257.302026,75.5778595 253.272588,71.5484222 248.302026,71.5484222 C247.89614,71.5484222 247.490719,71.5758794 247.088539,71.6306058 L117.853433,89.2161945 C111.286534,90.1097812 106.687406,96.1576997 107.580993,102.724598 C107.615399,102.977452 107.657863,103.229143 107.708319,103.479288 L110.956917,119.585 C112.216584,125.830106 118.136896,130.002291 124.441851,129.088155 L155.613356,124.568696 L155.613356,124.568696 Z" id="路径-74" fill="#CCCCCC" fill-rule="nonzero" transform="translate(182.386006, 102.723934) rotate(-2.000000) translate(-182.386006, -102.723934) "></path>
                            <path d="M8.0272646,22.1308953 L143.032606,0.81185047 C149.03338,-0.135747397 154.666148,3.96066134 155.613746,9.9614355 C155.644893,10.1586732 155.670662,10.3567224 155.691027,10.5553629 L159.944229,52.0415343 C160.434695,56.825623 157.07736,61.1500244 152.320984,61.86062 C144.940328,62.9632791 133.275624,64.7059686 117.326873,67.0886884 C117.88114,71.4940988 118.627082,75.5449337 119.564698,79.2411932 C116.732304,78.3010309 109.240458,75.258024 97.0891599,70.1121727 C72.2262076,73.8266609 47.3632552,77.5411491 22.5003029,81.2556374 C18.025018,81.9242383 13.7491452,79.1661122 12.5128844,74.813313 L0.77349206,33.4796241 C-0.58451352,28.6981688 2.19074082,23.7211524 6.97219613,22.3631468 C7.31891771,22.2646727 7.67124178,22.1871158 8.0272646,22.1308953 Z" id="路径-73" fill="#E1E1E1" fill-rule="nonzero"></path>
                            <g id="编组-40" transform="translate(168.858597, 184.190338) rotate(-10.000000) translate(-168.858597, -184.190338) translate(86.358597, 154.690338)" fill="#191919" fill-rule="nonzero">
                                <rect id="矩形" x="0" y="0" width="8.71621622" height="3.48452002" rx="1"></rect>
                                <rect id="矩形备份-33" x="0" y="6.09791004" width="8.71621622" height="8.71130005" rx="1"></rect>
                                <rect id="矩形备份-48" x="0" y="17.4226001" width="8.71621622" height="8.71130005" rx="1"></rect>
                                <rect id="矩形备份-19" x="11.3310811" y="0" width="8.71621622" height="3.48452002" rx="1"></rect>
                                <rect id="矩形备份-34" x="11.3310811" y="6.09791004" width="8.71621622" height="8.71130005" rx="1"></rect>
                                <rect id="矩形备份-49" x="11.3310811" y="17.4226001" width="8.71621622" height="8.71130005" rx="1"></rect>
                                <rect id="矩形备份-92" x="33.1216216" y="49.6544103" width="14.8175676" height="8.71130005" rx="1"></rect>
                                <rect id="矩形备份-93" x="106.337838" y="49.6544103" width="14.8175676" height="8.71130005" rx="1"></rect>
                                <rect id="矩形备份-20" x="22.6621622" y="0" width="8.36756757" height="3.48452002" rx="1"></rect>
                                <rect id="矩形备份-35" x="22.6621622" y="6.09791004" width="8.58002534" height="8.71130005" rx="1"></rect>
                                <rect id="矩形备份-50" x="22.6621622" y="17.4226001" width="8.58002534" height="8.71130005" rx="1"></rect>
                                <rect id="矩形备份-63" x="4.4408921e-15" y="49.6544103" width="8.58002534" height="8.71130005" rx="1"></rect>
                                <rect id="矩形备份-21" x="33.1216216" y="0" width="8.71621622" height="3.48452002" rx="1"></rect>
                                <rect id="矩形备份-36" x="33.1216216" y="6.09791004" width="8.71621622" height="8.71130005" rx="1"></rect>
                                <rect id="矩形备份-51" x="33.1216216" y="17.4226001" width="8.71621622" height="8.71130005" rx="1"></rect>
                                <rect id="矩形备份-90" x="10.4594595" y="49.6544103" width="8.71621622" height="8.71130005" rx="1"></rect>
                                <rect id="矩形备份-22" x="44.4527027" y="0" width="8.71621622" height="3.48452002" rx="1"></rect>
                                <rect id="矩形备份-37" x="44.4527027" y="6.09791004" width="8.71621622" height="8.71130005" rx="1"></rect>
                                <rect id="矩形备份-52" x="44.4527027" y="17.4226001" width="8.71621622" height="8.71130005" rx="1"></rect>
                                <rect id="矩形备份-91" x="21.7905405" y="49.6544103" width="8.71621622" height="8.71130005" rx="1"></rect>
                                <rect id="矩形备份-95" x="134.22973" y="54.8811903" width="8.71621622" height="3.48452002" rx="1"></rect>
                                <rect id="矩形备份-96" x="145.560811" y="54.8811903" width="8.71621622" height="3.48452002" rx="1"></rect>
                                <rect id="矩形备份-98" x="145.560811" y="49.6544103" width="8.71621622" height="3.48452002" rx="1"></rect>
                                <rect id="矩形备份-97" x="156.02027" y="54.8811903" width="8.71621622" height="3.48452002" rx="1"></rect>
                                <rect id="矩形备份-94" x="123.77027" y="49.6544103" width="8.71621622" height="8.71130005" rx="1"></rect>
                                <rect id="矩形备份-23" x="55.7837838" y="0" width="8.71621622" height="3.48452002" rx="1"></rect>
                                <rect id="矩形备份-38" x="55.7837838" y="6.09791004" width="8.71621622" height="8.71130005" rx="1"></rect>
                                <rect id="矩形备份-53" x="55.7837838" y="17.4226001" width="8.71621622" height="8.71130005" rx="1"></rect>
                                <rect id="矩形备份-24" x="67.1148649" y="0" width="8.71621622" height="3.48452002" rx="1"></rect>
                                <rect id="矩形备份-39" x="67.1148649" y="6.09791004" width="8.71621622" height="8.71130005" rx="1"></rect>
                                <rect id="矩形备份-54" x="67.1148649" y="17.4226001" width="8.71621622" height="8.71130005" rx="1"></rect>
                                <rect id="矩形备份-25" x="78.4459459" y="0" width="8.36756757" height="3.48452002" rx="1"></rect>
                                <rect id="矩形备份-40" x="78.4459459" y="6.09791004" width="8.58002534" height="8.71130005" rx="1"></rect>
                                <rect id="矩形备份-55" x="78.4459459" y="17.4226001" width="8.58002534" height="8.71130005" rx="1"></rect>
                                <rect id="矩形备份-26" x="88.9054054" y="0" width="8.71621622" height="3.48452002" rx="1"></rect>
                                <rect id="矩形备份-41" x="88.9054054" y="6.09791004" width="8.71621622" height="8.71130005" rx="1"></rect>
                                <rect id="矩形备份-56" x="88.9054054" y="17.4226001" width="8.71621622" height="8.71130005" rx="1"></rect>
                                <rect id="矩形备份-27" x="100.236486" y="0" width="8.71621622" height="3.48452002" rx="1"></rect>
                                <rect id="矩形备份-42" x="100.236486" y="6.09791004" width="8.71621622" height="8.71130005" rx="1"></rect>
                                <rect id="矩形备份-57" x="100.236486" y="17.4226001" width="8.71621622" height="8.71130005" rx="1"></rect>
                                <rect id="矩形备份-28" x="111.567568" y="0" width="8.71621622" height="3.48452002" rx="1"></rect>
                                <rect id="矩形备份-43" x="111.567568" y="6.09791004" width="8.71621622" height="8.71130005" rx="1"></rect>
                                <rect id="矩形备份-58" x="111.567568" y="17.4226001" width="8.71621622" height="8.71130005" rx="1"></rect>
                                <rect id="矩形备份-29" x="122.898649" y="0" width="8.71621622" height="3.48452002" rx="1"></rect>
                                <rect id="矩形备份-44" x="122.898649" y="6.09791004" width="8.71621622" height="8.71130005" rx="1"></rect>
                                <rect id="矩形备份-59" x="122.898649" y="17.4226001" width="8.71621622" height="8.71130005" rx="1"></rect>
                                <rect id="矩形备份-30" x="134.22973" y="0" width="8.36756757" height="3.48452002" rx="1"></rect>
                                <rect id="矩形备份-45" x="134.22973" y="6.09791004" width="8.58002534" height="8.71130005" rx="1"></rect>
                                <rect id="矩形备份-60" x="134.22973" y="17.4226001" width="8.58002534" height="8.71130005" rx="1"></rect>
                                <rect id="矩形备份-31" x="144.689189" y="0" width="8.71621622" height="3.48452002" rx="1"></rect>
                                <rect id="矩形备份-46" x="144.689189" y="6.09791004" width="8.71621622" height="8.71130005" rx="1"></rect>
                                <rect id="矩形备份-61" x="144.689189" y="17.4226001" width="8.71621622" height="8.71130005" rx="1"></rect>
                                <rect id="矩形备份-32" x="156.02027" y="0" width="8.71621622" height="3.48452002" rx="1"></rect>
                                <rect id="矩形备份-47" x="156.02027" y="6.09791004" width="8.71621622" height="8.71130005" rx="1"></rect>
                                <rect id="矩形备份-62" x="156.02027" y="17.4226001" width="8.71621622" height="8.71130005" rx="1"></rect>
                                <rect id="矩形备份-76" x="0" y="28.7472902" width="20.0472973" height="8.71130005" rx="1"></rect>
                                <rect id="矩形备份-88" x="0" y="39.2008502" width="24.4054054" height="8.71130005" rx="1"></rect>
                                <rect id="矩形备份-89" x="49.6824324" y="49.6544103" width="54.0405405" height="8.71130005" rx="1"></rect>
                                <g id="编组-39" transform="translate(22.662162, 28.747290)">
                                    <rect id="矩形备份-75" x="4.4408921e-15" y="0" width="8.58002534" height="8.71130005" rx="1"></rect>
                                    <rect id="矩形备份-74" x="10.4594595" y="0" width="8.71621622" height="8.71130005" rx="1"></rect>
                                    <rect id="矩形备份-73" x="21.7905405" y="0" width="8.71621622" height="8.71130005" rx="1"></rect>
                                    <rect id="矩形备份-72" x="33.1216216" y="0" width="8.71621622" height="8.71130005" rx="1"></rect>
                                    <rect id="矩形备份-71" x="44.4527027" y="0" width="8.71621622" height="8.71130005" rx="1"></rect>
                                    <rect id="矩形备份-70" x="55.7837838" y="0" width="8.58002534" height="8.71130005" rx="1"></rect>
                                    <rect id="矩形备份-69" x="66.2432432" y="0" width="8.71621622" height="8.71130005" rx="1"></rect>
                                    <rect id="矩形备份-68" x="77.5743243" y="0" width="8.71621622" height="8.71130005" rx="1"></rect>
                                    <rect id="矩形备份-67" x="88.9054054" y="0" width="8.71621622" height="8.71130005" rx="1"></rect>
                                    <rect id="矩形备份-66" x="100.236486" y="0" width="8.71621622" height="8.71130005" rx="1"></rect>
                                    <rect id="矩形备份-65" x="111.567568" y="0" width="8.58002534" height="8.71130005" rx="1"></rect>
                                </g>
                                <g id="编组-38" transform="translate(27.020270, 39.200850)">
                                    <rect id="矩形备份-77" x="4.4408921e-15" y="0" width="8.58002534" height="8.71130005" rx="1"></rect>
                                    <rect id="矩形备份-78" x="11.3310811" y="0" width="8.58002534" height="8.71130005" rx="1"></rect>
                                    <rect id="矩形备份-79" x="22.6621622" y="0" width="8.58002534" height="8.71130005" rx="1"></rect>
                                    <rect id="矩形备份-80" x="33.9932432" y="0" width="8.58002534" height="8.71130005" rx="1"></rect>
                                    <rect id="矩形备份-81" x="45.3243243" y="0" width="8.58002534" height="8.71130005" rx="1"></rect>
                                    <rect id="矩形备份-82" x="56.6554054" y="0" width="8.58002534" height="8.71130005" rx="1"></rect>
                                    <rect id="矩形备份-83" x="67.9864865" y="0" width="8.58002534" height="8.71130005" rx="1"></rect>
                                    <rect id="矩形备份-84" x="79.3175676" y="0" width="8.58002534" height="8.71130005" rx="1"></rect>
                                    <rect id="矩形备份-85" x="90.6486486" y="0" width="8.58002534" height="8.71130005" rx="1"></rect>
                                    <rect id="矩形备份-86" x="101.97973" y="0" width="8.58002534" height="8.71130005" rx="1"></rect>
                                </g>
                                <rect id="矩形备份-64" x="144.689189" y="28.7472902" width="20.0472973" height="8.71130005" rx="1"></rect>
                                <rect id="矩形备份-87" x="140.331081" y="39.2008502" width="24.4054054" height="8.71130005" rx="1"></rect>
                            </g>
                            <path d="M155.570978,221.426378 L201.867386,221.430843 C203.524014,221.431582 204.866937,222.774504 204.867675,224.431132 L204.870459,253.276926 C204.871198,254.93378 203.528182,256.277215 201.871328,256.277215 C201.871135,256.277215 201.870942,256.277215 201.870749,256.276636 L155.574341,256.272171 C153.917713,256.271432 152.57479,254.928509 152.574051,253.271881 L152.571268,224.426088 C152.570529,222.769234 153.913545,221.425799 155.570399,221.425799 C155.570592,221.425799 155.570785,221.425799 155.570978,221.426378 Z" id="矩形" fill="#DDDDDD" fill-rule="nonzero" transform="translate(178.720863, 238.851507) rotate(-10.000000) translate(-178.720863, -238.851507) "></path>
                            <g id="编组-41" transform="translate(81.988642, 39.272804) rotate(-10.000000) translate(-81.988642, -39.272804) translate(16.988642, 26.272804)" fill="#FFFFFF" fill-rule="nonzero">
                                <path d="M3.15693887,0 L30.1216216,0 C31.7784759,0 33.1216216,1.34314575 33.1216216,3 L33.1216216,22.2627702 C33.1216216,23.9196244 31.7784759,25.2627702 30.1216216,25.2627702 L4.13958394,25.2627702 C2.54213266,25.2627702 1.22486418,24.0109862 1.14347978,22.4156094 L0.160834704,3.15283923 C0.076423927,1.49813659 1.349397,0.0883066117 3.00409964,0.00389583472 C3.05500468,0.00129903331 3.10596764,0 3.15693887,0 Z" id="矩形"></path>
                                <path d="M42.7084445,1.75023942 L119.413113,1.74948448 C120.375327,1.74948448 121.155373,2.52949617 121.155373,3.4917105 C121.155373,3.49171621 121.155373,3.49172193 121.155373,3.49172764 C121.155373,4.45395422 120.37534,5.23399563 119.413113,5.2340051 L42.7084445,5.23476004 C41.7462302,5.23476004 40.9661842,4.45474835 40.9661842,3.49253402 C40.9661842,3.49252831 40.9661842,3.49252259 40.9661842,3.49251687 C40.9661842,2.5302903 41.746218,1.75024889 42.7084445,1.75023942 Z" id="矩形" transform="translate(81.060779, 3.492122) rotate(1.000000) translate(-81.060779, -3.492122) "></path>
                                <path d="M42.6747359,11.5243228 L128.095621,11.5234821 C129.057835,11.5234821 129.837881,12.3034938 129.837881,13.2657081 C129.837881,13.2657139 129.837881,13.2657196 129.837881,13.2657253 C129.837881,14.2279519 129.057847,15.0079933 128.095621,15.0080027 L42.6747359,15.0088435 C41.7125216,15.0088435 40.9324756,14.2288318 40.9324756,13.2666174 C40.9324756,13.2666117 40.9324756,13.266606 40.9324756,13.2666003 C40.9324756,12.3043737 41.7125094,11.5243323 42.6747359,11.5243228 Z" id="矩形备份-99" transform="translate(85.385178, 13.266163) rotate(1.000000) translate(-85.385178, -13.266163) "></path>
                                <path d="M42.5975855,22.0860062 L77.4644162,22.085663 C78.4266305,22.085663 79.2066765,22.8656747 79.2066765,23.8278891 C79.2066765,23.8278948 79.2066765,23.8279005 79.2066765,23.8279062 C79.2066765,24.7901328 78.4266428,25.5701742 77.4644162,25.5701837 L42.5975855,25.5705268 C41.6353711,25.5705268 40.8553252,24.7905151 40.8553252,23.8283008 C40.8553252,23.8282951 40.8553252,23.8282894 40.8553252,23.8282837 C40.8553252,22.8660571 41.6353589,22.0860157 42.5975855,22.0860062 Z" id="矩形备份-100" transform="translate(60.031001, 23.828095) rotate(1.000000) translate(-60.031001, -23.828095) "></path>
                            </g>
                            <g id="编组-42" transform="translate(183.795735, 101.154727) rotate(-11.000000) translate(-183.795735, -101.154727) translate(123.795735, 87.154727)" fill="#FFFFFF" fill-rule="nonzero">
                                <ellipse id="椭圆形" cx="106.773649" cy="15.2447751" rx="12.6385135" ry="12.6313851"></ellipse>
                                <path d="M2.61390765,0.871511904 L80.1901979,0.87074839 C81.1524122,0.87074839 81.9324582,1.65076008 81.9324582,2.61297441 C81.9324582,2.61298013 81.9324582,2.61298585 81.9324582,2.61299156 C81.9324582,3.57521813 81.1524244,4.35525955 80.1901979,4.35526902 L2.61390765,4.35603253 C1.65169332,4.35603253 0.871647342,3.57602085 0.871647342,2.61380652 C0.871647342,2.6138008 0.871647342,2.61379508 0.871647342,2.61378937 C0.871647342,1.6515628 1.65168107,0.871521374 2.61390765,0.871511904 Z" id="矩形" transform="translate(41.402053, 2.613390) rotate(1.000000) translate(-41.402053, -2.613390) "></path>
                                <path d="M6.10024047,12.2265934 L80.1900442,12.2258642 C81.1522585,12.2258642 81.9323045,13.0058759 81.9323045,13.9680902 C81.9323045,13.9680959 81.9323045,13.9681017 81.9323045,13.9681074 C81.9323045,14.9303339 81.1522707,15.7103754 80.1900442,15.7103848 L6.10024047,15.711114 C5.13802614,15.711114 4.35798016,14.9311023 4.35798016,13.968888 C4.35798016,13.9688823 4.35798016,13.9688766 4.35798016,13.9688709 C4.35798016,13.0066443 5.1380139,12.2266029 6.10024047,12.2265934 Z" id="矩形备份-101" transform="translate(43.145142, 13.968489) rotate(1.000000) translate(-43.145142, -13.968489) "></path>
                                <path d="M43.5770724,21.2797766 L78.4439032,21.2794334 C79.4061175,21.2794334 80.1861635,22.0594451 80.1861635,23.0216594 C80.1861635,23.0216651 80.1861635,23.0216709 80.1861635,23.0216766 C80.1861635,23.9839032 79.4061297,24.7639446 78.4439032,24.763954 L43.5770724,24.7642972 C42.6148581,24.7642972 41.8348121,23.9842855 41.8348121,23.0220712 C41.8348121,23.0220655 41.8348121,23.0220598 41.8348121,23.022054 C41.8348121,22.0598275 42.6148459,21.2797861 43.5770724,21.2797766 Z" id="矩形备份-102" transform="translate(61.010488, 23.021865) rotate(1.000000) translate(-61.010488, -23.021865) "></path>
                            </g>
                        </g>
                    </g>
                </g>
                <g id="编组-10" transform="translate(296.841493, 0.000000)">
                    <g id="编组-9">
                        <g id="分组-13" transform="translate(73.000000, 293.000000)" fill-rule="nonzero">
                            <g id="分组-12">
                                <ellipse id="椭圆形" fill="#8C8C8C" cx="57.9628378" cy="57.9301453" rx="55.347973" ry="55.3167553"></ellipse>
                                <ellipse id="椭圆形" fill="#FFFFFF" cx="55.347973" cy="55.3167553" rx="55.347973" ry="55.3167553"></ellipse>
                            </g>
                        </g>
                        <g id="编组-8" transform="translate(0.793642, 0.000000)" fill-rule="nonzero">
                            <ellipse id="椭圆形" fill="#8C8C8C" cx="118.540541" cy="114.460396" rx="52.2972973" ry="52.2678003"></ellipse>
                            <ellipse id="椭圆形备份-2" fill="#8C8C8C" cx="56.6554054" cy="163.679242" rx="44.0168919" ry="43.9920653"></ellipse>
                            <ellipse id="椭圆形" fill="#FFFFFF" cx="115.054054" cy="107.491356" rx="51.4256757" ry="51.3966703"></ellipse>
                            <ellipse id="椭圆形" fill="#DDDDDD" cx="131.614865" cy="68.8192704" rx="8.71621622" ry="8.71130005"></ellipse>
                            <ellipse id="椭圆形" fill="#1DA1F2" cx="96.75" cy="131.882997" rx="6.97297297" ry="6.96904004"></ellipse>
                            <path d="M146.13318,17.1941232 L127.390223,64.7023474 C126.254829,67.5802561 127.606515,70.8400282 130.445278,72.0700274 C133.147356,73.2408024 136.286923,71.9994364 137.457698,69.2973589 C137.485847,69.2323926 137.512699,69.1668721 137.538239,69.1008364 L162.063205,5.68828073 L162.063205,5.68828073 L146.13318,17.1941232 Z" id="路径-72" fill="#4A4A4A"></path>
                            <path d="M80.9934606,44.7877372 L155.022395,13.649746 C159.013495,11.9710127 161.790765,8.27243932 162.28981,3.97151139 L162.353253,3.42474415 L162.353253,3.42474415 L73.7408317,38.544785 L80.9934606,44.7877372 Z" id="路径-70" fill="#4A4A4A"></path>
                            <path d="M73.7408317,35.8001531 L157.757955,1.05900145 C159.260888,0.437537322 160.993909,0.924984688 161.952505,2.2388036 C162.662013,3.21123136 162.448875,4.57470968 161.476447,5.28421766 C161.336636,5.3862268 161.185174,5.47122075 161.02526,5.53740362 L75.3695939,40.9872338 L75.3695939,40.9872338 L73.7408317,35.8001531 Z" id="路径-67" fill="#787878"></path>
                            <ellipse id="椭圆形" fill="#D8D8D8" cx="52.2972973" cy="86.1486712" rx="52.2972973" ry="50.0899753"></ellipse>
                            <ellipse id="椭圆形备份" fill="#9B9B9B" cx="52.2972973" cy="58.2725111" rx="30.0709459" ry="31.7962452"></ellipse>
                            <ellipse id="椭圆形" fill="#D8D8D8" cx="50.9898649" cy="42.592171" rx="26.5844595" ry="23.0849451"></ellipse>
                        </g>
                        <g id="编组-5" transform="translate(127.178778, 185.550691)">
                            <g id="矩形" transform="translate(2.000000, 2.000000)" fill="#9B9B9B" fill-rule="nonzero">
                                <path d="M1.61348959,4.2306063 L52.7286663,0.68256499 C53.2792252,0.64434922 53.7566591,1.05937456 53.7954403,1.60989399 L57.1999274,49.9383638 C57.2387368,50.4892833 56.8235896,50.967353 56.2726701,51.0061624 C56.2723286,51.0061865 56.2719871,51.0062103 56.2716455,51.0062341 L5.15646887,54.5542754 C4.60590991,54.5924911 4.12847605,54.1774658 4.08969485,53.6269464 L0.68520769,5.29847652 C0.6463983,4.74755704 1.06154556,4.26948733 1.61246504,4.23067795 C1.61280654,4.23065389 1.61314806,4.23063001 1.61348959,4.2306063 Z" id="path-4"></path>
                            </g>
                            <g id="矩形" fill="#FFFFFF" fill-rule="nonzero">
                                <path d="M0.998624725,3.61721628 L52.1138014,0.0691749778 C52.6643604,0.0309592054 53.1417942,0.445984549 53.1805754,0.996503976 L56.5850626,49.3249738 C56.623872,49.8758933 56.2087247,50.353963 55.6578052,50.3927724 C55.6574637,50.3927965 55.6571222,50.3928203 55.6567807,50.392844 L4.54160401,53.9408853 C3.99104504,53.9791011 3.51361119,53.5640758 3.47482998,53.0135563 L0.0703428207,4.68508651 C0.0315334334,4.13416702 0.446680691,3.65609732 0.997600174,3.61728793 C0.997941679,3.61726387 0.998283196,3.61723999 0.998624725,3.61721628 Z" id="path-6"></path>
                            </g>
                            <g id="矩形-Clipped">
                                <mask id="mask-5" fill="white">
                                    <use xlink:href="#path-4"></use>
                                </mask>
                                <g id="path-4"></g>
                                <polygon id="矩形" fill="#1DA1F2" fill-rule="nonzero" mask="url(#mask-5)" points="0 3.1237224 54.1378175 -0.871130005 54.9121622 10.8143577 0.774344656 14.8092101"></polygon>
                            </g>
                            <g id="路径-81-Clipped">
                                <mask id="mask-7" fill="white">
                                    <use xlink:href="#path-6"></use>
                                </mask>
                                <g id="path-6"></g>
                                <line x1="0.774344656" y1="14.8092101" x2="54.9121622" y2="10.8143577" id="路径-81" mask="url(#mask-7)"></line>
                            </g>
                        </g>
                    </g>
                    <path d="M29.6705353,60.1864096 L29.6705353,64.5763004 L26.5147489,66.2334137 C23.1474369,68.0015999 19.0020891,67.1721426 16.5743992,64.244414 L16.5743992,64.244414 L16.5743992,64.244414 L27.5447116,58.8844077 L29.6705353,60.1864096 Z" id="路径-83" fill="#4A4A4A" fill-rule="nonzero"></path>
                    <path d="M17.7704205,58.1057591 L28.1415429,57.8861032 L28.1415429,57.8861032 L29.2570171,63.0028853 L17.647556,63.1755509 C16.3054304,63.1955121 15.2012408,62.1236861 15.1812796,60.7815605 C15.1808069,60.7497775 15.1810247,60.7179884 15.1817321,60.6862114 C15.2161837,59.2723959 16.3565024,58.1357052 17.7704205,58.1057591 Z" id="矩形" fill="#787878" fill-rule="nonzero" transform="translate(22.219021, 60.530964) rotate(-22.000000) translate(-22.219021, -60.530964) "></path>
                    <polygon id="矩形" fill="#F2F2F2" fill-rule="nonzero" transform="translate(154.569891, 206.519220) rotate(-5.000000) translate(-154.569891, -206.519220) " points="132.389176 205.772586 176.750563 206.39472 176.750606 207.265853 132.389219 206.64372"></polygon>
                    <polygon id="矩形备份" fill="#F2F2F2" fill-rule="nonzero" transform="translate(155.441512, 213.488259) rotate(-5.000000) translate(-155.441512, -213.488259) " points="133.260798 212.741626 177.622185 213.36376 177.622227 214.234893 133.260841 213.61276"></polygon>
                    <polygon id="矩形备份-2" fill="#F2F2F2" fill-rule="nonzero" transform="translate(156.313134, 220.457300) rotate(-5.000000) translate(-156.313134, -220.457300) " points="134.13242 219.710666 178.493806 220.3328 178.493849 221.203934 134.132462 220.5818"></polygon>
                    <polygon id="矩形备份-3" fill="#F2F2F2" fill-rule="nonzero" transform="translate(157.184756, 227.426340) rotate(-5.000000) translate(-157.184756, -227.426340) " points="135.004041 226.679706 179.365428 227.30184 179.365471 228.172974 135.004084 227.55084"></polygon>
                    <g id="编组" transform="translate(161.172021, 207.328941)" fill-rule="nonzero">
                        <path d="M11.081102,6.05365905 C12.2911024,4.39057373 11.8709444,2.09874502 10.1425672,0.934454034 C8.41419007,-0.229836951 6.0323854,0.174448983 4.82238497,1.8375343 C4.81965667,1.84015954 4.81829252,1.84409739 4.81556422,1.84672262 L0.946836815,7.16282013 C0.0615039209,8.37961578 0.368437513,10.0584525 1.63300391,10.9103407 C2.89757031,11.7622289 4.64231726,11.4668902 5.52765016,10.2500945 L9.39637757,4.93399703 C9.39910587,4.93137179 9.40047002,4.92743394 9.40319831,4.92480871 C9.96522782,4.15299011 9.77015447,3.08845799 8.96803469,2.54765992 C8.16727905,2.00686185 7.06231812,2.19456604 6.50028861,2.96638464 C6.49756031,2.96900987 6.49619616,2.97294772 6.49346786,2.97557296 L3.17176432,7.53954112 L3.73106553,7.9162621 L6.66125822,3.89046677 L7.05549737,3.34966871 C7.05686152,3.34704347 7.05958982,3.34441824 7.06095397,3.34179301 C7.40608374,2.86925101 8.08679424,2.75505336 8.57925214,3.08714537 C9.07171003,3.41923739 9.19175517,4.07292049 8.8493537,4.54677511 C8.8466254,4.54940034 8.84526125,4.55202558 8.84253295,4.55465081 L8.44556551,5.09282364 L8.44965795,5.09544888 L4.97107724,9.87337355 C4.64777386,10.3183506 4.16213671,10.6163146 3.6055638,10.7095104 C3.04899088,10.8040188 2.48832552,10.6845707 2.02587891,10.3721679 C1.5634323,10.0610777 1.25377041,9.5937862 1.15691581,9.0582386 C1.05869706,8.522691 1.18283464,7.98320555 1.50750218,7.5382285 L4.98471874,2.75899121 L4.98744704,2.76030382 L5.37759374,2.21950575 C5.38032203,2.2155679 5.38305033,2.21294267 5.38577863,2.20900482 C5.62859721,1.8769128 5.93143835,1.59863807 6.28611717,1.38599417 C6.62988279,1.17860073 7.00775215,1.03946337 7.40881204,0.971207301 C7.80987193,0.902951234 8.21502428,0.909514318 8.61199172,0.990896551 C9.02260066,1.07490402 9.40592661,1.23635587 9.75378468,1.47131425 C10.1016428,1.70496002 10.3894783,1.99767354 10.6131987,2.33895387 C10.8287343,2.66973327 10.9733342,3.03332809 11.0442699,3.41923739 C11.1152057,3.80514669 11.1083849,4.19499384 11.0238077,4.57696529 C10.9365021,4.97075029 10.7687118,5.33959558 10.5272573,5.67168759 C10.524529,5.67562544 10.5218007,5.67825068 10.5190724,5.68218853 L10.1248333,6.22036136 L6.49073956,11.217493 L7.05004077,11.594214 L11.0742812,6.06284736 C11.0770095,6.05890951 11.0797378,6.05628428 11.081102,6.05365905 Z" id="路径" stroke="#9B9B9B" fill="#9B9B9B"></path>
                        <path d="M10.6400462,5.78413511 C11.8500466,4.12104979 11.4298886,1.82922108 9.70151147,0.664930095 C7.97313431,-0.499360891 5.59132963,-0.0950749569 4.38132921,1.56801036 C4.37860091,1.5706356 4.37723676,1.57457345 4.37450846,1.57719868 L0.505781051,6.89329619 C-0.379551843,8.11009184 -0.0726182509,9.78892856 1.19194815,10.6408168 C2.45651455,11.492705 4.2012615,11.1973663 5.08659439,9.9805706 L8.9553218,4.66447309 C8.9580501,4.66184785 8.95941425,4.65791 8.96214255,4.65528477 C9.52417206,3.88346617 9.32909871,2.81893405 8.52697892,2.27813598 C7.72622329,1.73733791 6.62126235,1.9250421 6.05923284,2.6968607 C6.05650455,2.69948593 6.0551404,2.70342378 6.0524121,2.70604902 L2.73070856,7.27001718 L3.29000977,7.64673816 L6.22020246,3.62094283 L6.22429491,3.62356807 L6.61444161,3.08014477 C6.61580576,3.07751953 6.61853406,3.0748943 6.61989821,3.07226907 C6.96502798,2.59972707 7.64573848,2.48552942 8.13819637,2.81762143 C8.63065427,3.14971345 8.75069941,3.80339655 8.40829793,4.27725117 C8.40556964,4.2798764 8.40420549,4.28250164 8.40147719,4.28512687 L8.00450974,4.8232997 L8.00860219,4.82592494 L4.53002148,9.60384961 C4.2067181,10.0488267 3.72108095,10.3467906 3.16450803,10.4399864 C2.60793512,10.5344948 2.04726976,10.4150467 1.58482315,10.1026439 C1.12237653,9.7915538 0.812714644,9.32426226 0.715860043,8.78871466 C0.617641294,8.25316706 0.74177888,7.71368161 1.06644641,7.26870456 L4.54366297,2.48946727 L4.54639127,2.49077988 L4.93653797,1.94998181 C4.93926627,1.94604396 4.94199457,1.94341873 4.94472287,1.93948088 C5.18754144,1.60738886 5.49038259,1.32911413 5.8450614,1.11647023 C6.18882703,0.909076795 6.56669638,0.769939428 6.96775628,0.701683362 C7.36881617,0.633427295 7.77396851,0.639990378 8.17093596,0.721372612 C8.5815449,0.805380078 8.96487085,0.966831929 9.31272892,1.20179031 C9.66058699,1.43543608 9.94842249,1.7281496 10.172143,2.06942993 C10.3876786,2.40020933 10.5322784,2.76380415 10.6032142,3.14971345 C10.6741499,3.53562275 10.6673292,3.9254699 10.5827519,4.30744135 C10.4954464,4.70122635 10.327656,5.07007164 10.0862016,5.40216366 C10.0834733,5.40610151 10.080745,5.40872674 10.0780167,5.41266459 L9.68377753,5.95083742 L9.68514168,5.95215004 L6.0496838,10.9479691 L6.60898501,11.3246901 L10.6332254,5.79332342 C10.6359537,5.78938557 10.638682,5.78676034 10.6400462,5.78413511 Z" id="路径" stroke="#4A4A4A" fill="#4A4A4A"></path>
                    </g>
                </g>
                <path d="M133.793919,166.009376 C145.58641,164.212269 154.598624,157.741882 165.937124,150.229426 C178.517658,141.894045 232.846074,96.3071903 228.195548,91.0449589 C224.23547,86.5639926 144.208022,117.078311 133.793919,122.874753 C124.49299,128.051607 111.567568,137.731905 111.567568,148.316365 C111.567568,158.900825 122.001427,167.806484 133.793919,166.009376 Z" id="椭圆形" fill="url(#linearGradient-8)" fill-rule="nonzero"></path>
            </g>
            <g id="Group" transform="translate(384.000000, 311.000000)" fill="#1DA1F2" fill-rule="nonzero">
                <path d="M16.9778726,52.8320276 C18.1709871,54.9594243 20.7526082,55.8712194 24.1270793,55.8712194 C26.7292729,55.8712194 29.8138319,55.3059196 33.0861037,54.3601801 C34.7941962,62.2786091 37.9508065,68.2595792 42.4262421,68.2595792 C46.9727811,68.2595792 50.1555574,62.0832177 51.8434566,53.9774838 C54.8389941,54.7177708 57.6648315,55.1456949 60.1049095,55.1456949 C63.8777491,55.1456949 66.7409395,54.1465472 67.9321579,51.8026027 C69.3933795,48.9305936 67.8478767,45.0746695 63.4641171,40.6526934 C62.7689157,39.9503939 61.946392,39.2487526 61.1381837,38.5475815 C66.3907317,33.6215181 69.3802965,28.5760384 67.3844724,25.0162103 C65.2800023,21.2685131 58.8692278,21.2972858 51.4102001,23.4337092 C49.6369769,16.2838699 46.6101539,11.0475122 42.4262421,11.0475122 C38.1186105,11.0475122 35.0332931,16.5908732 33.2845295,24.0667097 C25.3292002,21.9770185 18.4567279,22.0568487 16.4299975,26.0457292 C14.9687759,28.9177383 16.5142787,32.7736624 20.8980383,37.1956385 C21.5932397,37.897938 22.4157634,38.5995793 23.2239717,39.3007504 C17.9716133,44.2267198 14.9820485,49.2721995 16.9778726,52.8320276 L16.9778726,52.8320276 Z M61.2272999,42.8332162 C64.3873232,46.0243582 65.8830536,48.9228833 65.1322969,50.4007305 C64.2044453,52.2292103 59.4268678,52.6884459 52.3938915,50.9300174 C52.6981191,48.9642559 52.9315277,46.9325803 53.0718384,44.8668664 C55.1004649,43.5121026 57.0247116,42.0865352 58.7825765,40.6248609 C59.6461506,41.3606346 60.4988222,42.0979127 61.2272999,42.8332162 L61.2272999,42.8332162 Z M53.1753649,36.4720886 C54.2679866,37.1877401 55.2903583,37.911196 56.2749977,38.6474398 C55.3358644,39.4115161 54.3188967,40.177661 53.2265593,40.9569699 C53.2339541,40.5221817 53.2488384,40.0870174 53.2488384,39.6534516 C53.2488384,38.595442 53.2191646,37.5333892 53.1753649,36.4720886 L53.1753649,36.4720886 Z M60.2256905,25.0730976 C62.5736185,25.0730976 64.1211122,25.597401 64.6420629,26.5280959 C65.5931415,28.222679 63.5599644,32.0866895 58.7087238,36.5762722 C56.9381551,35.2198159 55.0093578,33.8927905 52.9166434,32.6165406 C52.7213462,30.5040945 52.4411989,28.4372522 52.0725042,26.466037 C55.3222126,25.5265974 58.1118347,25.0730976 60.2256905,25.0730976 L60.2256905,25.0730976 Z M35.1253483,47.3252437 C35.8557221,47.7186592 36.5540519,48.1320089 37.3071788,48.5088755 C37.7223277,48.7163965 38.1491375,48.9066164 38.5692162,49.1074614 C37.5197305,49.546951 36.4812421,49.9788243 35.4958442,50.3328419 C35.3515518,49.3745026 35.2313397,48.3637894 35.1253483,47.3252437 Z M42.4263369,65.1444122 C40.3007254,65.1444122 37.6269544,60.8715654 36.0585089,53.4116198 C38.1593764,52.678667 40.2953216,51.8077742 42.4208383,50.8262099 C44.5722366,51.7160964 46.7334945,52.5024574 48.8506684,53.1483397 C47.2905657,60.7736816 44.5772612,65.1444122 42.4263369,65.1444122 Z M49.391528,50.0752036 C48.3700097,49.7556004 47.2935047,49.3604923 46.2013569,48.9538187 C46.6140409,48.7353903 47.0346884,48.5288095 47.4421581,48.3037051 C48.2221831,47.8727549 48.9947312,47.4286245 49.7594643,46.9715081 C49.6552741,48.0441862 49.5361049,49.0867751 49.391528,50.0752036 L49.391528,50.0752036 Z M49.5835071,30.7109573 C48.7415485,30.2521919 47.9278415,29.7759371 47.055261,29.3392684 C46.6281667,29.1255414 46.1922557,28.9245083 45.7598524,28.7181156 C46.8582156,28.2564914 47.9696852,27.8261655 49.0928939,27.4276673 C49.2794691,28.4686577 49.4434809,29.5632445 49.5835071,30.7109573 Z M42.4263369,14.1625851 C44.4034846,14.1625851 46.8574988,17.8516084 48.4533428,24.3679772 C46.3060211,25.1118374 44.1112023,26.0048268 41.9361029,27.0101804 C40.0755882,26.2405451 38.1832618,25.5488552 36.2641398,24.9369442 C37.8537267,18.0657115 40.3924962,14.1625851 42.4263369,14.1625851 L42.4263369,14.1625851 Z M35.665165,27.9814957 C36.4821901,28.2483488 37.3265189,28.5511208 38.1869645,28.8723224 C37.7642313,29.0960164 37.3376111,29.3139747 36.9203765,29.5445328 C36.3764831,29.844672 35.838278,30.1607021 35.2998833,30.4747575 C35.4040639,29.6412299 35.5258512,28.8099599 35.665165,27.9814957 L35.665165,27.9814957 Z M34.9206654,34.3722423 C36.0568024,33.6668399 37.184407,32.960027 38.4447379,32.2644976 C39.6154667,31.61936 40.8021851,31.0031884 42.0037933,30.4165539 C43.1897027,30.9384125 44.398934,31.4980706 45.6418208,32.1201637 C47.1260799,32.8618612 48.5540252,33.6438029 49.9358006,34.4453965 C50.0461531,36.0998294 50.1117578,37.8311777 50.1117578,39.6535457 C50.1117578,40.8502474 50.078197,41.9993707 50.0293727,43.1243287 C48.7278018,43.9482071 47.3881195,44.7723677 45.9175123,45.5836463 C44.691311,46.2600879 43.5255002,46.8189938 42.3531478,47.3914398 C41.1590853,46.8664782 39.9721331,46.3545866 38.7203346,45.7279801 C37.3826432,45.0593429 36.1057215,44.3497092 34.8503204,43.631895 C34.7859482,42.3478407 34.7407264,41.032945 34.7407264,39.6534516 C34.7407264,37.8048497 34.8071844,36.0480197 34.9206654,34.3722423 L34.9206654,34.3722423 Z M23.1350451,35.0149276 C19.9750218,31.8237856 18.4792914,28.9252605 19.2300481,27.4474133 C19.760574,26.4026617 21.537779,25.7987161 24.2764912,25.7987161 C26.4889436,25.7987161 29.348247,26.2137583 32.6631808,27.0932076 C32.3536442,28.8516362 32.1161589,30.6827488 31.9419083,32.5468654 C29.6739004,34.0281917 27.5260099,35.6052391 25.5800529,37.2230949 C24.7164788,36.4873212 23.8635228,35.7503252 23.1350451,35.0149276 Z M31.6380599,41.6619021 C30.3834172,40.8541966 29.2049026,40.036148 28.0876317,39.200704 C29.179021,38.3126981 30.3769705,37.4189564 31.6754128,36.5122388 C31.6325612,37.5602814 31.6038355,38.6087941 31.6038355,39.6534516 C31.6038355,40.3214307 31.6206158,40.9916664 31.6380599,41.6619021 L31.6380599,41.6619021 Z M25.653716,41.2718716 C27.6320349,42.7879083 29.6949682,44.1921032 31.8326935,45.4777701 C31.9840015,47.4675089 32.2152296,49.4224572 32.5192676,51.3110212 C25.534926,53.3678965 20.7219864,53.1093179 19.7203769,51.320048 C18.7692035,49.6254649 20.8023806,45.7614543 25.653716,41.2718716 L25.653716,41.2718716 Z M42.3401596,41.3326141 C43.6367058,41.3326141 44.6919746,40.2841013 44.6919746,39.000047 C44.6919746,37.7122316 43.6367058,36.6637188 42.3401596,36.6637188 C41.0417173,36.6637188 39.9864485,37.7122316 39.9864485,39.000047 C39.9864485,40.2841013 41.0417173,41.3326141 42.3401596,41.3326141 Z M42.3401596,38.2174471 C42.7729421,38.2174471 43.1234343,38.5707125 43.1234343,39.000047 C43.1234343,39.858622 41.554894,39.858622 41.554894,39.000047 C41.5549888,38.5708065 41.9073771,38.2174471 42.3401596,38.2174471 L42.3401596,38.2174471 Z M9.411147,36.3445858 C9.411147,34.5377326 8.33890821,33.009392 6.81919222,32.2336562 C10.0653928,15.3309842 24.9037177,3.11516693 42.3401596,3.11516693 C56.3169013,3.11516693 69.1828187,11.2258844 75.1178643,23.7851881 C75.487507,24.5601717 76.4144105,24.8982984 77.2053644,24.5335616 C77.9886391,24.1688247 78.3276599,23.2418909 77.9599133,22.4631462 C71.5097002,8.81734225 57.5271754,0 42.3400648,0 C23.3113814,0 7.12740162,13.3872254 3.68855832,31.8800147 C1.59698165,32.354859 0,34.1299306 0,36.3444918 C0,38.9163616 2.11053757,41.013387 4.7055261,41.013387 C7.30051462,41.013387 9.411147,38.9164556 9.411147,36.3445858 Z M4.7056209,37.8984081 C3.84185719,37.8984081 3.1370806,37.2031608 3.1370806,36.3446799 C3.1370806,35.4861989 3.84185719,34.7909516 4.7056209,34.7909516 C5.56938462,34.7909516 6.2741612,35.4861989 6.2741612,36.3446799 C6.2741612,37.2031608 5.56928981,37.8984081 4.7056209,37.8984081 Z M80.2926726,36.5535173 C77.6976841,36.5535173 75.5871465,38.6505428 75.5871465,41.2261737 C75.5871465,42.9380581 76.5672353,44.3762252 77.9578276,45.1889143 C74.9709173,62.169724 59.8120585,74.8848331 42.3401596,74.8848331 C28.4974715,74.8848331 15.6832225,66.8842231 9.69451762,54.4958633 L9.43977796,53.9564214 C9.08359748,53.1700603 8.15859007,52.8281724 7.36374922,53.1776767 C6.57469144,53.530942 6.22230315,54.4503535 6.57857842,55.2329534 L6.86393994,55.8407542 C13.3735007,69.3003815 27.2985739,78 42.3401596,78 C61.3206823,78 77.7900237,64.1868251 81.0433346,45.7443411 C83.2683012,45.3734924 85,43.5342933 85,41.2261737 C85,38.6505428 82.8876611,36.5535173 80.2926726,36.5535173 L80.2926726,36.5535173 Z M80.2926726,42.779996 C79.4289089,42.779996 78.7241323,42.0847487 78.7241323,41.2262677 C78.7241323,40.3677868 79.4289089,39.6686843 80.2926726,39.6686843 C81.1583324,39.6686843 81.863109,40.3676927 81.863109,41.2262677 C81.863109,42.0848427 81.1582376,42.779996 80.2926726,42.779996 Z" id="Shape"></path>
            </g>
        </g>
    </g>
</svg>